<svg width="213" height="31" viewBox="0 0 213 31" fill="none" xmlns="http://www.w3.org/2000/svg">
<path d="M113.572 25.9928C113.353 25.9928 113.125 25.9542 112.887 25.877C112.649 25.7934 112.456 25.6615 112.308 25.4814L112.52 25.1824C112.649 25.3174 112.8 25.4268 112.973 25.5104C113.154 25.5876 113.343 25.6262 113.543 25.6262C113.691 25.6262 113.829 25.6069 113.957 25.5683C114.093 25.5232 114.202 25.4493 114.285 25.3464C114.369 25.2435 114.411 25.1052 114.411 24.9315C114.411 24.7515 114.359 24.6132 114.257 24.5167C114.16 24.4202 114.035 24.343 113.88 24.2852C113.732 24.2208 113.575 24.163 113.408 24.1115C113.131 24.0215 112.903 23.8993 112.723 23.7449C112.549 23.5905 112.462 23.3719 112.462 23.0889C112.462 22.8831 112.51 22.703 112.607 22.5486C112.71 22.3943 112.848 22.2753 113.022 22.1917C113.195 22.1016 113.391 22.0566 113.61 22.0566C113.81 22.0566 114.006 22.0888 114.199 22.1531C114.398 22.2174 114.578 22.3267 114.739 22.4811L114.536 22.7995C114.433 22.658 114.295 22.5615 114.121 22.51C113.954 22.4586 113.806 22.4296 113.678 22.4232C113.568 22.4232 113.453 22.4457 113.33 22.4907C113.215 22.5358 113.115 22.6033 113.031 22.6933C112.954 22.7769 112.916 22.8895 112.916 23.031C112.916 23.1789 112.957 23.3011 113.041 23.3976C113.125 23.4876 113.231 23.5616 113.359 23.6195C113.494 23.6774 113.633 23.732 113.774 23.7835C113.961 23.8414 114.134 23.9121 114.295 23.9957C114.462 24.0729 114.597 24.179 114.7 24.3141C114.81 24.4427 114.864 24.6164 114.864 24.8351C114.864 25.0537 114.816 25.2531 114.72 25.4332C114.623 25.6069 114.478 25.7451 114.285 25.848C114.099 25.9445 113.861 25.9928 113.572 25.9928Z" fill="#0E3131"/>
<path d="M116.236 22.1434H116.689V25.9156H116.236V22.1434ZM116.139 20.7542C116.139 20.6641 116.175 20.5902 116.245 20.5323C116.316 20.468 116.393 20.4358 116.477 20.4358C116.567 20.4358 116.644 20.468 116.709 20.5323C116.773 20.5902 116.805 20.6641 116.805 20.7542C116.805 20.8507 116.773 20.9311 116.709 20.9954C116.644 21.0533 116.567 21.0822 116.477 21.0822C116.393 21.0822 116.316 21.05 116.245 20.9857C116.175 20.9214 116.139 20.8442 116.139 20.7542Z" fill="#0E3131"/>
<path d="M120.487 25.9928C120.126 25.9928 119.789 25.8995 119.474 25.713C119.158 25.52 118.927 25.2724 118.779 24.9701L118.856 24.8061V27.7293H118.403V22.1145H118.808L118.856 23.3494L118.769 23.0696C118.937 22.7673 119.181 22.5197 119.503 22.3267C119.824 22.1273 120.175 22.0277 120.554 22.0277C120.914 22.0277 121.239 22.1145 121.528 22.2881C121.818 22.4618 122.046 22.6998 122.213 23.002C122.387 23.2979 122.474 23.6388 122.474 24.0247C122.474 24.4041 122.384 24.745 122.204 25.0473C122.03 25.3432 121.792 25.5747 121.49 25.7419C121.194 25.9091 120.86 25.9928 120.487 25.9928ZM120.409 25.6165C120.705 25.6165 120.972 25.5458 121.21 25.4043C121.455 25.2628 121.647 25.073 121.789 24.8351C121.937 24.5907 122.011 24.3205 122.011 24.0247C122.011 23.7224 121.94 23.4523 121.799 23.2143C121.657 22.9699 121.467 22.7769 121.229 22.6354C120.998 22.4939 120.734 22.4232 120.438 22.4232C120.155 22.4232 119.898 22.4875 119.667 22.6161C119.435 22.7448 119.248 22.9184 119.107 23.1371C118.966 23.3558 118.882 23.6034 118.856 23.88V24.1887C118.875 24.4524 118.956 24.6936 119.097 24.9122C119.245 25.1309 119.432 25.3046 119.657 25.4332C119.888 25.5554 120.139 25.6165 120.409 25.6165Z" fill="#0E3131"/>
<path d="M128.341 25.9928C127.981 25.9928 127.653 25.9124 127.357 25.7516C127.068 25.5844 126.836 25.3528 126.662 25.057C126.495 24.7611 126.412 24.417 126.412 24.0247C126.412 23.6066 126.502 23.2497 126.682 22.9538C126.862 22.6515 127.106 22.4232 127.415 22.2688C127.724 22.108 128.074 22.0277 128.467 22.0277C128.801 22.0277 129.116 22.1273 129.412 22.3267C129.714 22.5261 129.93 22.7769 130.058 23.0792L129.991 23.2143L130.049 22.1434H130.454V25.9156H130V24.7482L130.097 24.9219C130.052 25.0505 129.975 25.1792 129.865 25.3078C129.756 25.43 129.621 25.5458 129.46 25.6551C129.306 25.758 129.132 25.8416 128.939 25.9059C128.753 25.9638 128.553 25.9928 128.341 25.9928ZM128.438 25.6069C128.721 25.6069 128.975 25.549 129.2 25.4332C129.431 25.311 129.618 25.1438 129.759 24.9315C129.901 24.7193 129.981 24.4749 130 24.1983V23.6581C129.949 23.4201 129.846 23.2079 129.692 23.0213C129.544 22.8348 129.361 22.6869 129.142 22.5776C128.923 22.4682 128.685 22.4136 128.428 22.4136C128.145 22.4136 127.884 22.4811 127.647 22.6161C127.409 22.7448 127.219 22.9281 127.077 23.1661C126.936 23.404 126.865 23.6838 126.865 24.0054C126.865 24.3012 126.936 24.5714 127.077 24.8158C127.219 25.0537 127.409 25.2467 127.647 25.3946C127.891 25.5361 128.155 25.6069 128.438 25.6069Z" fill="#0E3131"/>
<path d="M138.039 25.549C137.865 25.6905 137.669 25.7998 137.451 25.877C137.232 25.9542 137.004 25.9928 136.766 25.9928C136.38 25.9928 136.036 25.9091 135.733 25.7419C135.431 25.5683 135.193 25.3335 135.019 25.0377C134.846 24.7418 134.759 24.4041 134.759 24.0247C134.759 23.6452 134.849 23.3076 135.029 23.0117C135.209 22.7158 135.447 22.4843 135.743 22.3171C136.045 22.1434 136.373 22.0566 136.727 22.0566C136.991 22.0566 137.235 22.0952 137.46 22.1724C137.685 22.2495 137.881 22.3589 138.049 22.5004L137.807 22.8091C137.672 22.6998 137.515 22.6097 137.335 22.539C137.155 22.4682 136.962 22.4328 136.756 22.4328C136.473 22.4328 136.212 22.5036 135.974 22.6451C135.743 22.7866 135.556 22.9795 135.415 23.2239C135.28 23.4619 135.212 23.7288 135.212 24.0247C135.212 24.3141 135.28 24.581 135.415 24.8254C135.556 25.0634 135.746 25.2531 135.984 25.3946C136.229 25.5361 136.499 25.6069 136.795 25.6069C136.987 25.6069 137.168 25.5779 137.335 25.52C137.502 25.4557 137.653 25.3721 137.788 25.2692L138.039 25.549Z" fill="#0E3131"/>
<path d="M138.933 24.0054C138.933 23.6388 139.019 23.3043 139.193 23.002C139.373 22.6998 139.614 22.4618 139.917 22.2881C140.225 22.108 140.569 22.018 140.949 22.018C141.335 22.018 141.679 22.108 141.981 22.2881C142.283 22.4618 142.521 22.6998 142.695 23.002C142.869 23.3043 142.956 23.6388 142.956 24.0054C142.956 24.372 142.869 24.7064 142.695 25.0087C142.521 25.311 142.28 25.5522 141.971 25.7323C141.669 25.9059 141.328 25.9928 140.949 25.9928C140.563 25.9928 140.219 25.9091 139.917 25.7419C139.614 25.5683 139.373 25.3335 139.193 25.0377C139.019 24.7354 138.933 24.3913 138.933 24.0054ZM139.386 24.015C139.386 24.3109 139.453 24.581 139.589 24.8254C139.73 25.0634 139.917 25.2531 140.148 25.3946C140.386 25.5361 140.65 25.6069 140.939 25.6069C141.229 25.6069 141.489 25.5361 141.721 25.3946C141.959 25.2531 142.145 25.0634 142.28 24.8254C142.422 24.581 142.492 24.3109 142.492 24.015C142.492 23.7192 142.422 23.4523 142.28 23.2143C142.145 22.9699 141.959 22.7769 141.721 22.6354C141.489 22.4875 141.229 22.4136 140.939 22.4136C140.643 22.4136 140.376 22.4907 140.138 22.6451C139.907 22.793 139.724 22.9892 139.589 23.2336C139.453 23.478 139.386 23.7385 139.386 24.015Z" fill="#0E3131"/>
<path d="M144.553 25.9156V22.5679H143.897V22.1531H144.553V20.2525C144.553 19.6479 144.656 19.2138 144.861 18.9501C145.074 18.68 145.386 18.5449 145.797 18.5449C145.887 18.5449 145.984 18.5578 146.087 18.5835C146.19 18.6028 146.283 18.6382 146.366 18.6896L146.173 19.0176C146.128 18.9855 146.077 18.963 146.019 18.9501C145.968 18.9308 145.907 18.9212 145.836 18.9212C145.559 18.9212 145.35 19.0176 145.209 19.2106C145.074 19.4035 145.006 19.7476 145.006 20.2429V22.1531H146.27V22.5679H145.006V25.9156H144.553ZM147.331 25.9156V22.5679H146.675V22.1531H147.331V20.2525C147.331 19.6479 147.434 19.2138 147.64 18.9501C147.852 18.68 148.164 18.5449 148.576 18.5449C148.666 18.5449 148.762 18.5578 148.865 18.5835C148.968 18.6028 149.061 18.6382 149.145 18.6896L148.952 19.0176C148.907 18.9855 148.855 18.963 148.798 18.9501C148.746 18.9308 148.685 18.9212 148.614 18.9212C148.338 18.9212 148.129 19.0176 147.987 19.2106C147.852 19.4035 147.785 19.7476 147.785 20.2429V22.1531H149.048V22.5679H147.785V25.9156H147.331Z" fill="#0E3131"/>
<path d="M151.849 25.9928C151.457 25.9928 151.109 25.9059 150.807 25.7323C150.505 25.5586 150.267 25.3239 150.093 25.028C149.926 24.7257 149.842 24.3881 149.842 24.015C149.842 23.6484 149.932 23.314 150.113 23.0117C150.293 22.7094 150.534 22.4682 150.836 22.2881C151.145 22.108 151.486 22.018 151.859 22.018C152.309 22.018 152.685 22.1499 152.987 22.4136C153.296 22.6772 153.518 23.0213 153.653 23.4458L150.354 24.7193L150.219 24.3913L153.238 23.2143L153.142 23.3494C153.032 23.0921 152.865 22.8702 152.64 22.6837C152.421 22.4972 152.151 22.4039 151.83 22.4039C151.54 22.4039 151.28 22.4747 151.048 22.6161C150.817 22.7576 150.63 22.9474 150.489 23.1853C150.354 23.4233 150.286 23.6934 150.286 23.9957C150.286 24.2787 150.35 24.5424 150.479 24.7868C150.614 25.0312 150.801 25.2274 151.039 25.3753C151.277 25.5232 151.55 25.5972 151.859 25.5972C152.064 25.5972 152.261 25.5586 152.447 25.4814C152.64 25.4043 152.811 25.3046 152.958 25.1824L153.19 25.5104C153.01 25.6519 152.801 25.7677 152.563 25.8577C152.331 25.9477 152.093 25.9928 151.849 25.9928Z" fill="#0E3131"/>
<path d="M156.55 25.9928C156.158 25.9928 155.811 25.9059 155.508 25.7323C155.206 25.5586 154.968 25.3239 154.794 25.028C154.627 24.7257 154.544 24.3881 154.544 24.015C154.544 23.6484 154.634 23.314 154.814 23.0117C154.994 22.7094 155.235 22.4682 155.537 22.2881C155.846 22.108 156.187 22.018 156.56 22.018C157.01 22.018 157.386 22.1499 157.689 22.4136C157.997 22.6772 158.219 23.0213 158.354 23.4458L155.055 24.7193L154.92 24.3913L157.939 23.2143L157.843 23.3494C157.734 23.0921 157.566 22.8702 157.341 22.6837C157.123 22.4972 156.853 22.4039 156.531 22.4039C156.242 22.4039 155.981 22.4747 155.75 22.6161C155.518 22.7576 155.331 22.9474 155.19 23.1853C155.055 23.4233 154.987 23.6934 154.987 23.9957C154.987 24.2787 155.052 24.5424 155.18 24.7868C155.315 25.0312 155.502 25.2274 155.74 25.3753C155.978 25.5232 156.251 25.5972 156.56 25.5972C156.766 25.5972 156.962 25.5586 157.148 25.4814C157.341 25.4043 157.512 25.3046 157.66 25.1824L157.891 25.5104C157.711 25.6519 157.502 25.7677 157.264 25.8577C157.033 25.9477 156.795 25.9928 156.55 25.9928Z" fill="#0E3131"/>
<path d="M160.132 25.0763C159.991 25.4107 159.853 25.7419 159.718 26.0699C159.582 26.4044 159.444 26.742 159.303 27.0829H158.917C159.045 26.742 159.171 26.4044 159.293 26.0699C159.415 25.7419 159.537 25.4107 159.66 25.0763H160.132Z" fill="#0E3131"/>
<path d="M164.906 22.1434L164.954 23.3011L164.896 23.1564C164.98 22.9249 165.112 22.7255 165.292 22.5583C165.472 22.391 165.671 22.2624 165.89 22.1724C166.115 22.0823 166.331 22.0373 166.536 22.0373L166.517 22.4811C166.228 22.4811 165.964 22.5454 165.726 22.674C165.495 22.8027 165.308 22.9763 165.167 23.195C165.031 23.4072 164.964 23.6484 164.964 23.9186V25.9156H164.51V22.1434H164.906Z" fill="#0E3131"/>
<path d="M169.297 25.9928C168.905 25.9928 168.558 25.9059 168.255 25.7323C167.953 25.5586 167.715 25.3239 167.541 25.028C167.374 24.7257 167.291 24.3881 167.291 24.015C167.291 23.6484 167.381 23.314 167.561 23.0117C167.741 22.7094 167.982 22.4682 168.284 22.2881C168.593 22.108 168.934 22.018 169.307 22.018C169.757 22.018 170.133 22.1499 170.436 22.4136C170.744 22.6772 170.966 23.0213 171.101 23.4458L167.802 24.7193L167.667 24.3913L170.686 23.2143L170.59 23.3494C170.481 23.0921 170.313 22.8702 170.088 22.6837C169.87 22.4972 169.6 22.4039 169.278 22.4039C168.989 22.4039 168.728 22.4747 168.497 22.6161C168.265 22.7576 168.078 22.9474 167.937 23.1853C167.802 23.4233 167.734 23.6934 167.734 23.9957C167.734 24.2787 167.799 24.5424 167.927 24.7868C168.062 25.0312 168.249 25.2274 168.487 25.3753C168.725 25.5232 168.998 25.5972 169.307 25.5972C169.513 25.5972 169.709 25.5586 169.895 25.4814C170.088 25.4043 170.259 25.3046 170.407 25.1824L170.638 25.5104C170.458 25.6519 170.249 25.7677 170.011 25.8577C169.78 25.9477 169.542 25.9928 169.297 25.9928Z" fill="#0E3131"/>
<path d="M173.921 25.9928C173.561 25.9928 173.233 25.9124 172.937 25.7516C172.648 25.5844 172.416 25.3528 172.243 25.057C172.075 24.7611 171.992 24.417 171.992 24.0247C171.992 23.6066 172.082 23.2497 172.262 22.9538C172.442 22.6515 172.686 22.4232 172.995 22.2688C173.304 22.108 173.654 22.0277 174.047 22.0277C174.381 22.0277 174.696 22.1273 174.992 22.3267C175.294 22.5261 175.51 22.7769 175.639 23.0792L175.571 23.2143L175.629 22.1434H176.034V25.9156H175.581V24.7482L175.677 24.9219C175.632 25.0505 175.555 25.1792 175.446 25.3078C175.336 25.43 175.201 25.5458 175.04 25.6551C174.886 25.758 174.712 25.8416 174.519 25.9059C174.333 25.9638 174.134 25.9928 173.921 25.9928ZM174.018 25.6069C174.301 25.6069 174.555 25.549 174.78 25.4332C175.011 25.311 175.198 25.1438 175.339 24.9315C175.481 24.7193 175.561 24.4749 175.581 24.1983V23.6581C175.529 23.4201 175.426 23.2079 175.272 23.0213C175.124 22.8348 174.941 22.6869 174.722 22.5776C174.503 22.4682 174.265 22.4136 174.008 22.4136C173.725 22.4136 173.465 22.4811 173.227 22.6161C172.989 22.7448 172.799 22.9281 172.657 23.1661C172.516 23.404 172.445 23.6838 172.445 24.0054C172.445 24.3012 172.516 24.5714 172.657 24.8158C172.799 25.0537 172.989 25.2467 173.227 25.3946C173.471 25.5361 173.735 25.6069 174.018 25.6069Z" fill="#0E3131"/>
<path d="M179.291 25.9928C178.937 25.9928 178.616 25.9091 178.326 25.7419C178.037 25.5683 177.805 25.3303 177.632 25.028C177.464 24.7257 177.381 24.3848 177.381 24.0054C177.381 23.6002 177.468 23.2497 177.641 22.9538C177.815 22.658 178.05 22.4296 178.346 22.2688C178.648 22.108 178.979 22.0277 179.339 22.0277C179.699 22.0277 180.04 22.1209 180.362 22.3074C180.69 22.4939 180.928 22.7384 181.076 23.0406L180.999 23.2529V18.5835H181.452V25.9156H180.989V24.7579L181.085 24.9701C180.925 25.2724 180.683 25.52 180.362 25.713C180.04 25.8995 179.683 25.9928 179.291 25.9928ZM179.407 25.5972C179.696 25.5972 179.957 25.5361 180.188 25.4139C180.42 25.2853 180.606 25.1148 180.748 24.9026C180.889 24.6839 180.97 24.4395 180.989 24.1694V23.687C180.944 23.4426 180.844 23.2239 180.69 23.031C180.535 22.838 180.349 22.6869 180.13 22.5776C179.912 22.4618 179.67 22.4039 179.407 22.4039C179.117 22.4039 178.854 22.4714 178.616 22.6065C178.378 22.7416 178.188 22.9281 178.046 23.1661C177.905 23.404 177.834 23.6806 177.834 23.9957C177.834 24.2916 177.905 24.5617 178.046 24.8061C178.188 25.0441 178.378 25.237 178.616 25.385C178.86 25.5265 179.124 25.5972 179.407 25.5972Z" fill="#0E3131"/>
<path d="M187.686 25.9928C187.326 25.9928 186.998 25.9124 186.702 25.7516C186.412 25.5844 186.181 25.3528 186.007 25.057C185.84 24.7611 185.756 24.417 185.756 24.0247C185.756 23.6066 185.846 23.2497 186.026 22.9538C186.207 22.6515 186.451 22.4232 186.76 22.2688C187.068 22.108 187.419 22.0277 187.811 22.0277C188.146 22.0277 188.461 22.1273 188.757 22.3267C189.059 22.5261 189.274 22.7769 189.403 23.0792L189.335 23.2143L189.393 22.1434H189.799V25.9156H189.345V24.7482L189.442 24.9219C189.397 25.0505 189.319 25.1792 189.21 25.3078C189.101 25.43 188.966 25.5458 188.805 25.6551C188.651 25.758 188.477 25.8416 188.284 25.9059C188.097 25.9638 187.898 25.9928 187.686 25.9928ZM187.782 25.6069C188.065 25.6069 188.319 25.549 188.544 25.4332C188.776 25.311 188.962 25.1438 189.104 24.9315C189.245 24.7193 189.326 24.4749 189.345 24.1983V23.6581C189.294 23.4201 189.191 23.2079 189.036 23.0213C188.888 22.8348 188.705 22.6869 188.487 22.5776C188.268 22.4682 188.03 22.4136 187.773 22.4136C187.49 22.4136 187.229 22.4811 186.991 22.6161C186.753 22.7448 186.563 22.9281 186.422 23.1661C186.28 23.404 186.21 23.6838 186.21 24.0054C186.21 24.3012 186.28 24.5714 186.422 24.8158C186.563 25.0537 186.753 25.2467 186.991 25.3946C187.236 25.5361 187.499 25.6069 187.782 25.6069Z" fill="#0E3131"/>
<path d="M196.583 25.9928C196.197 25.9928 195.843 25.8931 195.522 25.6937C195.207 25.4943 194.975 25.2435 194.827 24.9412L194.924 24.6807V25.9156H194.47V18.5835H194.924V23.2529L194.866 23.002C195.014 22.7062 195.248 22.4714 195.57 22.2978C195.892 22.1177 196.245 22.0277 196.631 22.0277C196.985 22.0277 197.306 22.1145 197.596 22.2881C197.885 22.4554 198.114 22.6869 198.281 22.9828C198.455 23.2786 198.541 23.6163 198.541 23.9957C198.541 24.4202 198.451 24.7836 198.271 25.0859C198.091 25.3818 197.853 25.6069 197.557 25.7612C197.261 25.9156 196.937 25.9928 196.583 25.9928ZM196.506 25.5972C196.827 25.5972 197.104 25.5297 197.335 25.3946C197.573 25.2531 197.757 25.0634 197.885 24.8254C198.014 24.581 198.078 24.3045 198.078 23.9957C198.078 23.7063 198.011 23.4426 197.876 23.2046C197.747 22.9602 197.564 22.7673 197.326 22.6258C197.094 22.4779 196.821 22.4039 196.506 22.4039C196.242 22.4039 195.998 22.4586 195.773 22.5679C195.554 22.6772 195.371 22.8252 195.223 23.0117C195.075 23.1982 194.975 23.4137 194.924 23.6581V24.2466C194.949 24.4845 195.033 24.7064 195.174 24.9122C195.316 25.1181 195.502 25.2853 195.734 25.4139C195.966 25.5361 196.223 25.5972 196.506 25.5972Z" fill="#0E3131"/>
<path d="M199.521 24.0054C199.521 23.6388 199.608 23.3043 199.781 23.002C199.961 22.6998 200.203 22.4618 200.505 22.2881C200.814 22.108 201.158 22.018 201.537 22.018C201.923 22.018 202.267 22.108 202.569 22.2881C202.872 22.4618 203.11 22.6998 203.283 23.002C203.457 23.3043 203.544 23.6388 203.544 24.0054C203.544 24.372 203.457 24.7064 203.283 25.0087C203.11 25.311 202.868 25.5522 202.56 25.7323C202.257 25.9059 201.917 25.9928 201.537 25.9928C201.151 25.9928 200.807 25.9091 200.505 25.7419C200.203 25.5683 199.961 25.3335 199.781 25.0377C199.608 24.7354 199.521 24.3913 199.521 24.0054ZM199.974 24.015C199.974 24.3109 200.042 24.581 200.177 24.8254C200.318 25.0634 200.505 25.2531 200.736 25.3946C200.974 25.5361 201.238 25.6069 201.527 25.6069C201.817 25.6069 202.077 25.5361 202.309 25.3946C202.547 25.2531 202.733 25.0634 202.868 24.8254C203.01 24.581 203.081 24.3109 203.081 24.015C203.081 23.7192 203.01 23.4523 202.868 23.2143C202.733 22.9699 202.547 22.7769 202.309 22.6354C202.077 22.4875 201.817 22.4136 201.527 22.4136C201.232 22.4136 200.965 22.4907 200.727 22.6451C200.495 22.793 200.312 22.9892 200.177 23.2336C200.042 23.478 199.974 23.7385 199.974 24.015Z" fill="#0E3131"/>
<path d="M204.523 24.0054C204.523 23.6388 204.61 23.3043 204.784 23.002C204.964 22.6998 205.205 22.4618 205.508 22.2881C205.816 22.108 206.16 22.018 206.54 22.018C206.926 22.018 207.27 22.108 207.572 22.2881C207.874 22.4618 208.112 22.6998 208.286 23.002C208.46 23.3043 208.546 23.6388 208.546 24.0054C208.546 24.372 208.46 24.7064 208.286 25.0087C208.112 25.311 207.871 25.5522 207.562 25.7323C207.26 25.9059 206.919 25.9928 206.54 25.9928C206.154 25.9928 205.81 25.9091 205.508 25.7419C205.205 25.5683 204.964 25.3335 204.784 25.0377C204.61 24.7354 204.523 24.3913 204.523 24.0054ZM204.977 24.015C204.977 24.3109 205.044 24.581 205.18 24.8254C205.321 25.0634 205.508 25.2531 205.739 25.3946C205.977 25.5361 206.241 25.6069 206.53 25.6069C206.82 25.6069 207.08 25.5361 207.312 25.3946C207.55 25.2531 207.736 25.0634 207.871 24.8254C208.013 24.581 208.083 24.3109 208.083 24.015C208.083 23.7192 208.013 23.4523 207.871 23.2143C207.736 22.9699 207.55 22.7769 207.312 22.6354C207.08 22.4875 206.82 22.4136 206.53 22.4136C206.234 22.4136 205.967 22.4907 205.729 22.6451C205.498 22.793 205.315 22.9892 205.18 23.2336C205.044 23.478 204.977 23.7385 204.977 24.015Z" fill="#0E3131"/>
<path d="M209.893 25.9156V18.5835H210.346V25.9156H209.893ZM211.214 23.4651L212.97 25.9156H212.44L210.896 23.716L211.214 23.4651ZM210.192 24.5456L210.153 24.0922L212.459 22.0662L212.739 22.3074L210.192 24.5456Z" fill="#0E3131"/>
<path d="M27.6288 14.7986L27.8961 18.3631L27.7476 17.8879C28.0645 17.1354 28.5199 16.5017 29.114 15.9868C29.7279 15.4521 30.3616 15.0461 31.0151 14.7689C31.6884 14.4719 32.2726 14.3233 32.7676 14.3233L32.6191 17.0561C31.6884 16.9967 30.8666 17.175 30.1537 17.5908C29.4606 18.0067 28.9061 18.5612 28.4902 19.2543C28.0942 19.9474 27.8961 20.69 27.8961 21.4821V27.0963H25.1633V14.7986H27.6288Z" fill="#0E3131"/>
<path d="M41.5125 27.3933C40.1065 27.3933 38.8986 27.1161 37.8886 26.5616C36.8787 25.9873 36.0964 25.215 35.542 24.2446C35.0073 23.2545 34.74 22.1257 34.74 20.8583C34.74 19.6503 35.0469 18.5513 35.6608 17.5611C36.2747 16.571 37.0965 15.7788 38.1262 15.1848C39.156 14.5907 40.3046 14.2936 41.5719 14.2936C43.1958 14.2936 44.5424 14.7689 45.6117 15.7194C46.6811 16.67 47.4039 17.977 47.7801 19.6404L37.651 23.205L36.9975 21.5712L45.3147 18.5414L44.7206 18.9275C44.483 18.274 44.0869 17.7096 43.5324 17.2344C42.9779 16.7393 42.2551 16.4918 41.364 16.4918C40.6115 16.4918 39.9382 16.6799 39.3441 17.0561C38.75 17.4126 38.2847 17.9077 37.948 18.5414C37.6114 19.1751 37.443 19.8979 37.443 20.7098C37.443 21.5613 37.6213 22.3138 37.9777 22.9673C38.3342 23.601 38.8193 24.106 39.4332 24.4823C40.0669 24.8387 40.7798 25.0169 41.5719 25.0169C42.1066 25.0169 42.6215 24.9179 43.1166 24.7199C43.6314 24.5219 44.1067 24.2644 44.5424 23.9476L45.8197 25.9972C45.2058 26.4131 44.5127 26.7497 43.7404 27.0072C42.9878 27.2646 42.2452 27.3933 41.5125 27.3933Z" fill="#0E3131"/>
<path d="M56.3508 27.3933C55.2022 27.3933 54.1526 27.1458 53.2021 26.6507C52.2714 26.1556 51.5288 25.4328 50.9743 24.4823C50.4396 23.5119 50.1723 22.3336 50.1723 20.9474C50.1723 19.581 50.4594 18.4027 51.0337 17.4126C51.608 16.4026 52.3704 15.6303 53.3209 15.0956C54.2913 14.561 55.3507 14.2936 56.4993 14.2936C57.6478 14.2936 58.6182 14.561 59.4103 15.0956C60.2024 15.6105 60.8064 16.2244 61.2223 16.9373L61.044 17.4126L61.3114 14.7986H63.8659V27.0963H61.1034V23.8882L61.4005 24.6011C61.3213 24.7991 61.1431 25.0566 60.8658 25.3734C60.6084 25.6704 60.2519 25.9774 59.7965 26.2942C59.3608 26.6111 58.8558 26.8784 58.2815 27.0963C57.7073 27.2943 57.0637 27.3933 56.3508 27.3933ZM57.0934 25.1061C57.7865 25.1061 58.4103 24.9773 58.9647 24.7199C59.5192 24.4625 59.9747 24.106 60.3311 23.6505C60.7074 23.1753 60.9648 22.6109 61.1034 21.9574V19.5513C60.945 18.9572 60.6678 18.4424 60.2717 18.0067C59.8757 17.5512 59.4004 17.2047 58.8459 16.967C58.2914 16.7096 57.6776 16.5809 57.0043 16.5809C56.2715 16.5809 55.5983 16.7591 54.9844 17.1156C54.3705 17.472 53.8754 17.9671 53.4991 18.6008C53.1427 19.2345 52.9645 19.9771 52.9645 20.8286C52.9645 21.6207 53.1526 22.3435 53.5289 22.997C53.9051 23.6505 54.4101 24.1654 55.0438 24.5417C55.6775 24.9179 56.3607 25.1061 57.0934 25.1061Z" fill="#0E3131"/>
<path d="M73.6368 27.3933C72.508 27.3933 71.4783 27.126 70.5476 26.5913C69.6366 26.0368 68.9138 25.2645 68.3791 24.2743C67.8445 23.2644 67.5771 22.1059 67.5771 20.7989C67.5771 19.4325 67.8544 18.2641 68.4089 17.2938C68.9831 16.3234 69.7554 15.5808 70.7258 15.0659C71.6961 14.5511 72.7853 14.2936 73.9933 14.2936C74.9636 14.2936 75.8844 14.5016 76.7558 14.9174C77.6469 15.3333 78.34 15.9076 78.8351 16.6403L78.7162 17.6205V4.10498H81.449V27.0963H78.6865V24.0367L78.9836 24.809C78.4093 25.5615 77.6667 26.1853 76.7558 26.6804C75.8448 27.1557 74.8052 27.3933 73.6368 27.3933ZM74.4982 25.0467C75.2309 25.0467 75.8844 24.9179 76.4587 24.6605C77.033 24.3833 77.5083 24.007 77.8845 23.5317C78.2608 23.0565 78.5281 22.4921 78.6865 21.8386V19.5216C78.5281 18.9275 78.241 18.4126 77.8251 17.977C77.4291 17.5215 76.9439 17.1651 76.3696 16.9076C75.8151 16.6304 75.1913 16.4918 74.4982 16.4918C73.7457 16.4918 73.0526 16.6799 72.4189 17.0561C71.805 17.4126 71.31 17.9077 70.9337 18.5414C70.5575 19.1751 70.3693 19.9078 70.3693 20.7395C70.3693 21.5514 70.5575 22.2841 70.9337 22.9376C71.31 23.5713 71.8149 24.0862 72.4486 24.4823C73.0823 24.8585 73.7655 25.0467 74.4982 25.0467Z" fill="#0E3131"/>
<path d="M84.8583 25.5219C84.8583 25.0863 85.0167 24.7199 85.3336 24.4229C85.6702 24.106 86.0366 23.9476 86.4326 23.9476C86.7891 23.9476 87.1257 24.106 87.4426 24.4229C87.7792 24.7199 87.9476 25.0863 87.9476 25.5219C87.9476 25.9972 87.7792 26.3834 87.4426 26.6804C87.1257 26.9576 86.7891 27.0963 86.4326 27.0963C86.0366 27.0963 85.6702 26.9576 85.3336 26.6804C85.0167 26.3834 84.8583 25.9972 84.8583 25.5219Z" fill="#0E3131"/>
<path d="M91.2438 14.7986H94.0063V27.0963H91.2438V14.7986ZM91.0359 10.3429C91.0359 9.90726 91.2042 9.5409 91.5409 9.24386C91.8973 8.94681 92.2835 8.79829 92.6993 8.79829C93.1152 8.79829 93.4815 8.94681 93.7984 9.24386C94.135 9.5409 94.3034 9.90726 94.3034 10.3429C94.3034 10.7984 94.135 11.1747 93.7984 11.4717C93.4815 11.7489 93.1152 11.8876 92.6993 11.8876C92.2835 11.8876 91.8973 11.739 91.5409 11.442C91.2042 11.1449 91.0359 10.7786 91.0359 10.3429Z" fill="#0E3131"/>
<path d="M99.9741 9.39238H102.737V14.858H106.123V17.0264H102.737V27.0963H99.9741V17.0264H97.7166V14.858H99.9741V9.39238Z" fill="#0E3131"/>
<path fill-rule="evenodd" clip-rule="evenodd" d="M7.76852 2.54712L9.27419 4.0528L6.43377 6.89325L9.27419 9.73369L7.76852 11.2394L3.42242 6.89325L7.76852 2.54712Z" fill="#0E3131"/>
<path fill-rule="evenodd" clip-rule="evenodd" d="M11.6516 0L10.146 1.50568L12.9864 4.34613L10.146 7.18657L11.6516 8.69225L15.9977 4.34613L11.6516 0Z" fill="#0E3131"/>
<path fill-rule="evenodd" clip-rule="evenodd" d="M10.5627 16.1572L16.6355 13.9462V19.5661L19.031 18.7143V11.4751C19.031 11.0132 18.5719 10.6918 18.1379 10.8498L9.74314 13.9062C9.59609 13.9597 9.43489 13.9597 9.28784 13.9062L0.893066 10.8498C0.459049 10.6918 0 11.0132 0 11.4751V26.9563C0 27.236 0.174933 27.4859 0.437772 27.5816L9.28784 30.8037C9.43489 30.8573 9.59609 30.8573 9.74314 30.8037L18.5932 27.5816C18.856 27.4859 19.031 27.236 19.031 26.9563V24.9047L15.2969 26.2324L9.51549 28.3373L2.39551 25.745V13.9462L8.46831 16.1572C9.14471 16.4034 9.88627 16.4034 10.5627 16.1572Z" fill="#0E3131"/>
</svg>
