<svg width="214" height="31" viewBox="0 0 214 31" fill="none" xmlns="http://www.w3.org/2000/svg">
<path d="M114.433 25.9928C114.214 25.9928 113.986 25.9542 113.748 25.877C113.51 25.7934 113.317 25.6615 113.169 25.4814L113.381 25.1824C113.51 25.3174 113.661 25.4268 113.835 25.5104C114.015 25.5876 114.205 25.6262 114.404 25.6262C114.552 25.6262 114.69 25.6069 114.819 25.5683C114.954 25.5232 115.063 25.4493 115.147 25.3464C115.23 25.2435 115.272 25.1052 115.272 24.9315C115.272 24.7515 115.221 24.6132 115.118 24.5167C115.021 24.4202 114.896 24.343 114.742 24.2852C114.594 24.2208 114.436 24.163 114.269 24.1115C113.992 24.0215 113.764 23.8993 113.584 23.7449C113.41 23.5905 113.323 23.3719 113.323 23.0889C113.323 22.8831 113.372 22.703 113.468 22.5486C113.571 22.3943 113.709 22.2753 113.883 22.1917C114.057 22.1016 114.253 22.0566 114.471 22.0566C114.671 22.0566 114.867 22.0888 115.06 22.1531C115.259 22.2174 115.439 22.3267 115.6 22.4811L115.398 22.7995C115.295 22.658 115.156 22.5615 114.983 22.51C114.816 22.4586 114.668 22.4296 114.539 22.4232C114.43 22.4232 114.314 22.4457 114.192 22.4907C114.076 22.5358 113.976 22.6033 113.893 22.6933C113.815 22.7769 113.777 22.8895 113.777 23.031C113.777 23.1789 113.819 23.3011 113.902 23.3976C113.986 23.4876 114.092 23.5616 114.221 23.6195C114.356 23.6774 114.494 23.732 114.636 23.7835C114.822 23.8414 114.996 23.9121 115.156 23.9957C115.324 24.0729 115.459 24.179 115.562 24.3141C115.671 24.4427 115.726 24.6164 115.726 24.8351C115.726 25.0537 115.677 25.2531 115.581 25.4332C115.484 25.6069 115.34 25.7451 115.147 25.848C114.96 25.9445 114.722 25.9928 114.433 25.9928Z" fill="#AECC4E"/>
<path d="M117.097 22.1434H117.551V25.9156H117.097V22.1434ZM117.001 20.7542C117.001 20.6641 117.036 20.5902 117.107 20.5323C117.178 20.468 117.255 20.4358 117.338 20.4358C117.428 20.4358 117.506 20.468 117.57 20.5323C117.634 20.5902 117.666 20.6641 117.666 20.7542C117.666 20.8507 117.634 20.9311 117.57 20.9954C117.506 21.0533 117.428 21.0822 117.338 21.0822C117.255 21.0822 117.178 21.05 117.107 20.9857C117.036 20.9214 117.001 20.8442 117.001 20.7542Z" fill="#AECC4E"/>
<path d="M121.348 25.9928C120.988 25.9928 120.65 25.8995 120.335 25.713C120.02 25.52 119.788 25.2724 119.64 24.9701L119.717 24.8061V27.7293H119.264V22.1145H119.669L119.717 23.3494L119.631 23.0696C119.798 22.7673 120.042 22.5197 120.364 22.3267C120.685 22.1273 121.036 22.0277 121.415 22.0277C121.776 22.0277 122.1 22.1145 122.39 22.2881C122.679 22.4618 122.908 22.6998 123.075 23.002C123.248 23.2979 123.335 23.6388 123.335 24.0247C123.335 24.4041 123.245 24.745 123.065 25.0473C122.891 25.3432 122.654 25.5747 122.351 25.7419C122.055 25.9091 121.721 25.9928 121.348 25.9928ZM121.271 25.6165C121.567 25.6165 121.833 25.5458 122.071 25.4043C122.316 25.2628 122.509 25.073 122.65 24.8351C122.798 24.5907 122.872 24.3205 122.872 24.0247C122.872 23.7224 122.801 23.4523 122.66 23.2143C122.518 22.9699 122.329 22.7769 122.091 22.6354C121.859 22.4939 121.596 22.4232 121.3 22.4232C121.017 22.4232 120.759 22.4875 120.528 22.6161C120.296 22.7448 120.11 22.9184 119.968 23.1371C119.827 23.3558 119.743 23.6034 119.717 23.88V24.1887C119.737 24.4524 119.817 24.6936 119.959 24.9122C120.107 25.1309 120.293 25.3046 120.518 25.4332C120.75 25.5554 121.001 25.6165 121.271 25.6165Z" fill="#AECC4E"/>
<path d="M129.202 25.9928C128.842 25.9928 128.514 25.9124 128.218 25.7516C127.929 25.5844 127.697 25.3528 127.524 25.057C127.357 24.7611 127.273 24.417 127.273 24.0247C127.273 23.6066 127.363 23.2497 127.543 22.9538C127.723 22.6515 127.968 22.4232 128.276 22.2688C128.585 22.108 128.936 22.0277 129.328 22.0277C129.662 22.0277 129.977 22.1273 130.273 22.3267C130.576 22.5261 130.791 22.7769 130.92 23.0792L130.852 23.2143L130.91 22.1434H131.315V25.9156H130.862V24.7482L130.958 24.9219C130.913 25.0505 130.836 25.1792 130.727 25.3078C130.617 25.43 130.482 25.5458 130.322 25.6551C130.167 25.758 129.994 25.8416 129.801 25.9059C129.614 25.9638 129.415 25.9928 129.202 25.9928ZM129.299 25.6069C129.582 25.6069 129.836 25.549 130.061 25.4332C130.293 25.311 130.479 25.1438 130.621 24.9315C130.762 24.7193 130.843 24.4749 130.862 24.1983V23.6581C130.81 23.4201 130.707 23.2079 130.553 23.0213C130.405 22.8348 130.222 22.6869 130.003 22.5776C129.785 22.4682 129.547 22.4136 129.289 22.4136C129.006 22.4136 128.746 22.4811 128.508 22.6161C128.27 22.7448 128.08 22.9281 127.939 23.1661C127.797 23.404 127.726 23.6838 127.726 24.0054C127.726 24.3012 127.797 24.5714 127.939 24.8158C128.08 25.0537 128.27 25.2467 128.508 25.3946C128.752 25.5361 129.016 25.6069 129.299 25.6069Z" fill="#AECC4E"/>
<path d="M138.9 25.549C138.727 25.6905 138.531 25.7998 138.312 25.877C138.093 25.9542 137.865 25.9928 137.627 25.9928C137.241 25.9928 136.897 25.9091 136.595 25.7419C136.292 25.5683 136.054 25.3335 135.881 25.0377C135.707 24.7418 135.62 24.4041 135.62 24.0247C135.62 23.6452 135.71 23.3076 135.89 23.0117C136.07 22.7158 136.308 22.4843 136.604 22.3171C136.907 22.1434 137.235 22.0566 137.588 22.0566C137.852 22.0566 138.096 22.0952 138.322 22.1724C138.547 22.2495 138.743 22.3589 138.91 22.5004L138.669 22.8091C138.534 22.6998 138.376 22.6097 138.196 22.539C138.016 22.4682 137.823 22.4328 137.617 22.4328C137.334 22.4328 137.074 22.5036 136.836 22.6451C136.604 22.7866 136.418 22.9795 136.276 23.2239C136.141 23.4619 136.074 23.7288 136.074 24.0247C136.074 24.3141 136.141 24.581 136.276 24.8254C136.418 25.0634 136.607 25.2531 136.845 25.3946C137.09 25.5361 137.36 25.6069 137.656 25.6069C137.849 25.6069 138.029 25.5779 138.196 25.52C138.363 25.4557 138.514 25.3721 138.65 25.2692L138.9 25.549Z" fill="#AECC4E"/>
<path d="M139.794 24.0054C139.794 23.6388 139.881 23.3043 140.054 23.002C140.234 22.6998 140.476 22.4618 140.778 22.2881C141.087 22.108 141.431 22.018 141.81 22.018C142.196 22.018 142.54 22.108 142.842 22.2881C143.145 22.4618 143.383 22.6998 143.556 23.002C143.73 23.3043 143.817 23.6388 143.817 24.0054C143.817 24.372 143.73 24.7064 143.556 25.0087C143.383 25.311 143.142 25.5522 142.833 25.7323C142.531 25.9059 142.19 25.9928 141.81 25.9928C141.424 25.9928 141.08 25.9091 140.778 25.7419C140.476 25.5683 140.234 25.3335 140.054 25.0377C139.881 24.7354 139.794 24.3913 139.794 24.0054ZM140.247 24.015C140.247 24.3109 140.315 24.581 140.45 24.8254C140.591 25.0634 140.778 25.2531 141.009 25.3946C141.247 25.5361 141.511 25.6069 141.801 25.6069C142.09 25.6069 142.35 25.5361 142.582 25.3946C142.82 25.2531 143.006 25.0634 143.142 24.8254C143.283 24.581 143.354 24.3109 143.354 24.015C143.354 23.7192 143.283 23.4523 143.142 23.2143C143.006 22.9699 142.82 22.7769 142.582 22.6354C142.35 22.4875 142.09 22.4136 141.801 22.4136C141.505 22.4136 141.238 22.4907 141 22.6451C140.768 22.793 140.585 22.9892 140.45 23.2336C140.315 23.478 140.247 23.7385 140.247 24.015Z" fill="#AECC4E"/>
<path d="M145.414 25.9156V22.5679H144.758V22.1531H145.414V20.2525C145.414 19.6479 145.517 19.2138 145.723 18.9501C145.935 18.68 146.247 18.5449 146.659 18.5449C146.749 18.5449 146.845 18.5578 146.948 18.5835C147.051 18.6028 147.144 18.6382 147.228 18.6896L147.035 19.0176C146.99 18.9855 146.938 18.963 146.88 18.9501C146.829 18.9308 146.768 18.9212 146.697 18.9212C146.421 18.9212 146.212 19.0176 146.07 19.2106C145.935 19.4035 145.867 19.7476 145.867 20.2429V22.1531H147.131V22.5679H145.867V25.9156H145.414ZM148.192 25.9156V22.5679H147.536V22.1531H148.192V20.2525C148.192 19.6479 148.295 19.2138 148.501 18.9501C148.713 18.68 149.025 18.5449 149.437 18.5449C149.527 18.5449 149.623 18.5578 149.726 18.5835C149.829 18.6028 149.923 18.6382 150.006 18.6896L149.813 19.0176C149.768 18.9855 149.717 18.963 149.659 18.9501C149.607 18.9308 149.546 18.9212 149.476 18.9212C149.199 18.9212 148.99 19.0176 148.848 19.2106C148.713 19.4035 148.646 19.7476 148.646 20.2429V22.1531H149.91V22.5679H148.646V25.9156H148.192Z" fill="#AECC4E"/>
<path d="M152.71 25.9928C152.318 25.9928 151.971 25.9059 151.668 25.7323C151.366 25.5586 151.128 25.3239 150.955 25.028C150.787 24.7257 150.704 24.3881 150.704 24.015C150.704 23.6484 150.794 23.314 150.974 23.0117C151.154 22.7094 151.395 22.4682 151.697 22.2881C152.006 22.108 152.347 22.018 152.72 22.018C153.17 22.018 153.546 22.1499 153.849 22.4136C154.157 22.6772 154.379 23.0213 154.514 23.4458L151.215 24.7193L151.08 24.3913L154.1 23.2143L154.003 23.3494C153.894 23.0921 153.727 22.8702 153.501 22.6837C153.283 22.4972 153.013 22.4039 152.691 22.4039C152.402 22.4039 152.141 22.4747 151.91 22.6161C151.678 22.7576 151.492 22.9474 151.35 23.1853C151.215 23.4233 151.147 23.6934 151.147 23.9957C151.147 24.2787 151.212 24.5424 151.34 24.7868C151.476 25.0312 151.662 25.2274 151.9 25.3753C152.138 25.5232 152.411 25.5972 152.72 25.5972C152.926 25.5972 153.122 25.5586 153.309 25.4814C153.501 25.4043 153.672 25.3046 153.82 25.1824L154.051 25.5104C153.871 25.6519 153.662 25.7677 153.424 25.8577C153.193 25.9477 152.955 25.9928 152.71 25.9928Z" fill="#AECC4E"/>
<path d="M157.412 25.9928C157.019 25.9928 156.672 25.9059 156.37 25.7323C156.067 25.5586 155.829 25.3239 155.656 25.028C155.489 24.7257 155.405 24.3881 155.405 24.015C155.405 23.6484 155.495 23.314 155.675 23.0117C155.855 22.7094 156.096 22.4682 156.399 22.2881C156.707 22.108 157.048 22.018 157.421 22.018C157.871 22.018 158.248 22.1499 158.55 22.4136C158.859 22.6772 159.081 23.0213 159.216 23.4458L155.916 24.7193L155.781 24.3913L158.801 23.2143L158.704 23.3494C158.595 23.0921 158.428 22.8702 158.203 22.6837C157.984 22.4972 157.714 22.4039 157.392 22.4039C157.103 22.4039 156.842 22.4747 156.611 22.6161C156.379 22.7576 156.193 22.9474 156.051 23.1853C155.916 23.4233 155.849 23.6934 155.849 23.9957C155.849 24.2787 155.913 24.5424 156.042 24.7868C156.177 25.0312 156.363 25.2274 156.601 25.3753C156.839 25.5232 157.113 25.5972 157.421 25.5972C157.627 25.5972 157.823 25.5586 158.01 25.4814C158.203 25.4043 158.373 25.3046 158.521 25.1824L158.753 25.5104C158.572 25.6519 158.363 25.7677 158.125 25.8577C157.894 25.9477 157.656 25.9928 157.412 25.9928Z" fill="#AECC4E"/>
<path d="M160.994 25.0763C160.852 25.4107 160.714 25.7419 160.579 26.0699C160.444 26.4044 160.306 26.742 160.164 27.0829H159.778C159.907 26.742 160.032 26.4044 160.154 26.0699C160.277 25.7419 160.399 25.4107 160.521 25.0763H160.994Z" fill="#AECC4E"/>
<path d="M165.767 22.1434L165.816 23.3011L165.758 23.1564C165.841 22.9249 165.973 22.7255 166.153 22.5583C166.333 22.391 166.533 22.2624 166.751 22.1724C166.977 22.0823 167.192 22.0373 167.398 22.0373L167.378 22.4811C167.089 22.4811 166.825 22.5454 166.587 22.674C166.356 22.8027 166.169 22.9763 166.028 23.195C165.893 23.4072 165.825 23.6484 165.825 23.9186V25.9156H165.372V22.1434H165.767Z" fill="#AECC4E"/>
<path d="M170.159 25.9928C169.766 25.9928 169.419 25.9059 169.117 25.7323C168.814 25.5586 168.576 25.3239 168.403 25.028C168.236 24.7257 168.152 24.3881 168.152 24.015C168.152 23.6484 168.242 23.314 168.422 23.0117C168.602 22.7094 168.843 22.4682 169.146 22.2881C169.454 22.108 169.795 22.018 170.168 22.018C170.618 22.018 170.995 22.1499 171.297 22.4136C171.606 22.6772 171.828 23.0213 171.963 23.4458L168.663 24.7193L168.528 24.3913L171.548 23.2143L171.451 23.3494C171.342 23.0921 171.175 22.8702 170.95 22.6837C170.731 22.4972 170.461 22.4039 170.139 22.4039C169.85 22.4039 169.589 22.4747 169.358 22.6161C169.126 22.7576 168.94 22.9474 168.798 23.1853C168.663 23.4233 168.596 23.6934 168.596 23.9957C168.596 24.2787 168.66 24.5424 168.789 24.7868C168.924 25.0312 169.11 25.2274 169.348 25.3753C169.586 25.5232 169.86 25.5972 170.168 25.5972C170.374 25.5972 170.57 25.5586 170.757 25.4814C170.95 25.4043 171.12 25.3046 171.268 25.1824L171.5 25.5104C171.319 25.6519 171.11 25.7677 170.872 25.8577C170.641 25.9477 170.403 25.9928 170.159 25.9928Z" fill="#AECC4E"/>
<path d="M174.783 25.9928C174.422 25.9928 174.094 25.9124 173.799 25.7516C173.509 25.5844 173.278 25.3528 173.104 25.057C172.937 24.7611 172.853 24.417 172.853 24.0247C172.853 23.6066 172.943 23.2497 173.123 22.9538C173.303 22.6515 173.548 22.4232 173.856 22.2688C174.165 22.108 174.516 22.0277 174.908 22.0277C175.242 22.0277 175.558 22.1273 175.853 22.3267C176.156 22.5261 176.371 22.7769 176.5 23.0792L176.432 23.2143L176.49 22.1434H176.895V25.9156H176.442V24.7482L176.538 24.9219C176.493 25.0505 176.416 25.1792 176.307 25.3078C176.198 25.43 176.063 25.5458 175.902 25.6551C175.747 25.758 175.574 25.8416 175.381 25.9059C175.194 25.9638 174.995 25.9928 174.783 25.9928ZM174.879 25.6069C175.162 25.6069 175.416 25.549 175.641 25.4332C175.873 25.311 176.059 25.1438 176.201 24.9315C176.342 24.7193 176.423 24.4749 176.442 24.1983V23.6581C176.391 23.4201 176.288 23.2079 176.133 23.0213C175.985 22.8348 175.802 22.6869 175.583 22.5776C175.365 22.4682 175.127 22.4136 174.869 22.4136C174.586 22.4136 174.326 22.4811 174.088 22.6161C173.85 22.7448 173.66 22.9281 173.519 23.1661C173.377 23.404 173.307 23.6838 173.307 24.0054C173.307 24.3012 173.377 24.5714 173.519 24.8158C173.66 25.0537 173.85 25.2467 174.088 25.3946C174.332 25.5361 174.596 25.6069 174.879 25.6069Z" fill="#AECC4E"/>
<path d="M180.152 25.9928C179.799 25.9928 179.477 25.9091 179.188 25.7419C178.898 25.5683 178.667 25.3303 178.493 25.028C178.326 24.7257 178.242 24.3848 178.242 24.0054C178.242 23.6002 178.329 23.2497 178.503 22.9538C178.676 22.658 178.911 22.4296 179.207 22.2688C179.509 22.108 179.84 22.0277 180.201 22.0277C180.561 22.0277 180.902 22.1209 181.223 22.3074C181.551 22.4939 181.789 22.7384 181.937 23.0406L181.86 23.2529V18.5835H182.313V25.9156H181.85V24.7579L181.947 24.9701C181.786 25.2724 181.545 25.52 181.223 25.713C180.902 25.8995 180.545 25.9928 180.152 25.9928ZM180.268 25.5972C180.557 25.5972 180.818 25.5361 181.05 25.4139C181.281 25.2853 181.468 25.1148 181.609 24.9026C181.751 24.6839 181.831 24.4395 181.85 24.1694V23.687C181.805 23.4426 181.706 23.2239 181.551 23.031C181.397 22.838 181.21 22.6869 180.992 22.5776C180.773 22.4618 180.532 22.4039 180.268 22.4039C179.979 22.4039 179.715 22.4714 179.477 22.6065C179.239 22.7416 179.049 22.9281 178.908 23.1661C178.766 23.404 178.696 23.6806 178.696 23.9957C178.696 24.2916 178.766 24.5617 178.908 24.8061C179.049 25.0441 179.239 25.237 179.477 25.385C179.721 25.5265 179.985 25.5972 180.268 25.5972Z" fill="#AECC4E"/>
<path d="M188.547 25.9928C188.187 25.9928 187.859 25.9124 187.563 25.7516C187.274 25.5844 187.042 25.3528 186.868 25.057C186.701 24.7611 186.618 24.417 186.618 24.0247C186.618 23.6066 186.708 23.2497 186.888 22.9538C187.068 22.6515 187.312 22.4232 187.621 22.2688C187.93 22.108 188.28 22.0277 188.673 22.0277C189.007 22.0277 189.322 22.1273 189.618 22.3267C189.92 22.5261 190.136 22.7769 190.264 23.0792L190.197 23.2143L190.255 22.1434H190.66V25.9156H190.206V24.7482L190.303 24.9219C190.258 25.0505 190.181 25.1792 190.071 25.3078C189.962 25.43 189.827 25.5458 189.666 25.6551C189.512 25.758 189.338 25.8416 189.145 25.9059C188.959 25.9638 188.759 25.9928 188.547 25.9928ZM188.644 25.6069C188.927 25.6069 189.181 25.549 189.406 25.4332C189.637 25.311 189.824 25.1438 189.965 24.9315C190.107 24.7193 190.187 24.4749 190.206 24.1983V23.6581C190.155 23.4201 190.052 23.2079 189.898 23.0213C189.75 22.8348 189.567 22.6869 189.348 22.5776C189.129 22.4682 188.891 22.4136 188.634 22.4136C188.351 22.4136 188.09 22.4811 187.853 22.6161C187.615 22.7448 187.425 22.9281 187.283 23.1661C187.142 23.404 187.071 23.6838 187.071 24.0054C187.071 24.3012 187.142 24.5714 187.283 24.8158C187.425 25.0537 187.615 25.2467 187.853 25.3946C188.097 25.5361 188.361 25.6069 188.644 25.6069Z" fill="#AECC4E"/>
<path d="M197.444 25.9928C197.058 25.9928 196.705 25.8931 196.383 25.6937C196.068 25.4943 195.836 25.2435 195.688 24.9412L195.785 24.6807V25.9156H195.331V18.5835H195.785V23.2529L195.727 23.002C195.875 22.7062 196.11 22.4714 196.431 22.2978C196.753 22.1177 197.107 22.0277 197.493 22.0277C197.846 22.0277 198.168 22.1145 198.457 22.2881C198.747 22.4554 198.975 22.6869 199.142 22.9828C199.316 23.2786 199.403 23.6163 199.403 23.9957C199.403 24.4202 199.313 24.7836 199.133 25.0859C198.952 25.3818 198.715 25.6069 198.419 25.7612C198.123 25.9156 197.798 25.9928 197.444 25.9928ZM197.367 25.5972C197.689 25.5972 197.965 25.5297 198.197 25.3946C198.435 25.2531 198.618 25.0634 198.747 24.8254C198.875 24.581 198.94 24.3045 198.94 23.9957C198.94 23.7063 198.872 23.4426 198.737 23.2046C198.608 22.9602 198.425 22.7673 198.187 22.6258C197.956 22.4779 197.682 22.4039 197.367 22.4039C197.103 22.4039 196.859 22.4586 196.634 22.5679C196.415 22.6772 196.232 22.8252 196.084 23.0117C195.936 23.1982 195.836 23.4137 195.785 23.6581V24.2466C195.811 24.4845 195.894 24.7064 196.036 24.9122C196.177 25.1181 196.364 25.2853 196.595 25.4139C196.827 25.5361 197.084 25.5972 197.367 25.5972Z" fill="#AECC4E"/>
<path d="M200.382 24.0054C200.382 23.6388 200.469 23.3043 200.643 23.002C200.823 22.6998 201.064 22.4618 201.366 22.2881C201.675 22.108 202.019 22.018 202.398 22.018C202.784 22.018 203.128 22.108 203.431 22.2881C203.733 22.4618 203.971 22.6998 204.145 23.002C204.318 23.3043 204.405 23.6388 204.405 24.0054C204.405 24.372 204.318 24.7064 204.145 25.0087C203.971 25.311 203.73 25.5522 203.421 25.7323C203.119 25.9059 202.778 25.9928 202.398 25.9928C202.013 25.9928 201.668 25.9091 201.366 25.7419C201.064 25.5683 200.823 25.3335 200.643 25.0377C200.469 24.7354 200.382 24.3913 200.382 24.0054ZM200.836 24.015C200.836 24.3109 200.903 24.581 201.038 24.8254C201.18 25.0634 201.366 25.2531 201.598 25.3946C201.836 25.5361 202.099 25.6069 202.389 25.6069C202.678 25.6069 202.939 25.5361 203.17 25.3946C203.408 25.2531 203.595 25.0634 203.73 24.8254C203.871 24.581 203.942 24.3109 203.942 24.015C203.942 23.7192 203.871 23.4523 203.73 23.2143C203.595 22.9699 203.408 22.7769 203.17 22.6354C202.939 22.4875 202.678 22.4136 202.389 22.4136C202.093 22.4136 201.826 22.4907 201.588 22.6451C201.357 22.793 201.173 22.9892 201.038 23.2336C200.903 23.478 200.836 23.7385 200.836 24.015Z" fill="#AECC4E"/>
<path d="M205.385 24.0054C205.385 23.6388 205.472 23.3043 205.645 23.002C205.825 22.6998 206.067 22.4618 206.369 22.2881C206.678 22.108 207.022 22.018 207.401 22.018C207.787 22.018 208.131 22.108 208.433 22.2881C208.736 22.4618 208.974 22.6998 209.147 23.002C209.321 23.3043 209.408 23.6388 209.408 24.0054C209.408 24.372 209.321 24.7064 209.147 25.0087C208.974 25.311 208.732 25.5522 208.424 25.7323C208.121 25.9059 207.781 25.9928 207.401 25.9928C207.015 25.9928 206.671 25.9091 206.369 25.7419C206.067 25.5683 205.825 25.3335 205.645 25.0377C205.472 24.7354 205.385 24.3913 205.385 24.0054ZM205.838 24.015C205.838 24.3109 205.906 24.581 206.041 24.8254C206.182 25.0634 206.369 25.2531 206.6 25.3946C206.838 25.5361 207.102 25.6069 207.391 25.6069C207.681 25.6069 207.941 25.5361 208.173 25.3946C208.411 25.2531 208.597 25.0634 208.732 24.8254C208.874 24.581 208.945 24.3109 208.945 24.015C208.945 23.7192 208.874 23.4523 208.732 23.2143C208.597 22.9699 208.411 22.7769 208.173 22.6354C207.941 22.4875 207.681 22.4136 207.391 22.4136C207.096 22.4136 206.829 22.4907 206.591 22.6451C206.359 22.793 206.176 22.9892 206.041 23.2336C205.906 23.478 205.838 23.7385 205.838 24.015Z" fill="#AECC4E"/>
<path d="M210.754 25.9156V18.5835H211.208V25.9156H210.754ZM212.076 23.4651L213.832 25.9156H213.301L211.757 23.716L212.076 23.4651ZM211.053 24.5456L211.015 24.0922L213.32 22.0662L213.6 22.3074L211.053 24.5456Z" fill="#AECC4E"/>
<path d="M28.4901 14.7986L28.7575 18.3631L28.6089 17.8879C28.9258 17.1354 29.3812 16.5017 29.9753 15.9868C30.5892 15.4521 31.2229 15.0461 31.8764 14.7689C32.5497 14.4719 33.1339 14.3233 33.629 14.3233L33.4804 17.0561C32.5497 16.9967 31.7279 17.175 31.015 17.5908C30.3219 18.0067 29.7674 18.5612 29.3515 19.2543C28.9555 19.9474 28.7575 20.69 28.7575 21.4821V27.0963H26.0247V14.7986H28.4901Z" fill="white"/>
<path d="M42.3739 27.3933C40.9679 27.3933 39.7599 27.1161 38.7499 26.5616C37.74 25.9873 36.9578 25.215 36.4033 24.2446C35.8686 23.2545 35.6013 22.1257 35.6013 20.8583C35.6013 19.6503 35.9082 18.5513 36.5221 17.5611C37.136 16.571 37.9578 15.7788 38.9876 15.1848C40.0173 14.5907 41.1659 14.2936 42.4333 14.2936C44.0571 14.2936 45.4037 14.7689 46.4731 15.7194C47.5424 16.67 48.2652 17.977 48.6415 19.6404L38.5123 23.205L37.8588 21.5712L46.176 18.5414L45.5819 18.9275C45.3443 18.274 44.9482 17.7096 44.3938 17.2344C43.8393 16.7393 43.1165 16.4918 42.2253 16.4918C41.4728 16.4918 40.7995 16.6799 40.2054 17.0561C39.6114 17.4126 39.146 17.9077 38.8093 18.5414C38.4727 19.1751 38.3044 19.8979 38.3044 20.7098C38.3044 21.5613 38.4826 22.3138 38.839 22.9673C39.1955 23.601 39.6807 24.106 40.2946 24.4823C40.9283 24.8387 41.6412 25.0169 42.4333 25.0169C42.9679 25.0169 43.4828 24.9179 43.9779 24.7199C44.4928 24.5219 44.968 24.2644 45.4037 23.9476L46.681 25.9972C46.0671 26.4131 45.374 26.7497 44.6017 27.0072C43.8492 27.2646 43.1066 27.3933 42.3739 27.3933Z" fill="white"/>
<path d="M57.2121 27.3933C56.0635 27.3933 55.014 27.1458 54.0634 26.6507C53.1327 26.1556 52.3901 25.4328 51.8356 24.4823C51.3009 23.5119 51.0336 22.3336 51.0336 20.9474C51.0336 19.581 51.3207 18.4027 51.895 17.4126C52.4693 16.4026 53.2317 15.6303 54.1822 15.0956C55.1526 14.561 56.212 14.2936 57.3606 14.2936C58.5092 14.2936 59.4795 14.561 60.2716 15.0956C61.0637 15.6105 61.6677 16.2244 62.0836 16.9373L61.9054 17.4126L62.1727 14.7986H64.7273V27.0963H61.9648V23.8882L62.2618 24.6011C62.1826 24.7991 62.0044 25.0566 61.7271 25.3734C61.4697 25.6704 61.1133 25.9774 60.6578 26.2942C60.2221 26.6111 59.7171 26.8784 59.1429 27.0963C58.5686 27.2943 57.925 27.3933 57.2121 27.3933ZM57.9547 25.1061C58.6478 25.1061 59.2716 24.9773 59.8261 24.7199C60.3805 24.4625 60.836 24.106 61.1925 23.6505C61.5687 23.1753 61.8262 22.6109 61.9648 21.9574V19.5513C61.8064 18.9572 61.5291 18.4424 61.1331 18.0067C60.737 17.5512 60.2617 17.2047 59.7072 16.967C59.1528 16.7096 58.5389 16.5809 57.8656 16.5809C57.1329 16.5809 56.4596 16.7591 55.8457 17.1156C55.2318 17.472 54.7367 17.9671 54.3605 18.6008C54.004 19.2345 53.8258 19.9771 53.8258 20.8286C53.8258 21.6207 54.0139 22.3435 54.3902 22.997C54.7664 23.6505 55.2714 24.1654 55.9051 24.5417C56.5388 24.9179 57.222 25.1061 57.9547 25.1061Z" fill="white"/>
<path d="M74.4981 27.3933C73.3694 27.3933 72.3396 27.126 71.4089 26.5913C70.498 26.0368 69.7752 25.2645 69.2405 24.2743C68.7058 23.2644 68.4385 22.1059 68.4385 20.7989C68.4385 19.4325 68.7157 18.2641 69.2702 17.2938C69.8445 16.3234 70.6168 15.5808 71.5871 15.0659C72.5575 14.5511 73.6466 14.2936 74.8546 14.2936C75.8249 14.2936 76.7458 14.5016 77.6171 14.9174C78.5082 15.3333 79.2013 15.9076 79.6964 16.6403L79.5776 17.6205V4.10498H82.3104V27.0963H79.5479V24.0367L79.8449 24.809C79.2706 25.5615 78.528 26.1853 77.6171 26.6804C76.7062 27.1557 75.6665 27.3933 74.4981 27.3933ZM75.3596 25.0467C76.0923 25.0467 76.7458 24.9179 77.32 24.6605C77.8943 24.3833 78.3696 24.007 78.7459 23.5317C79.1221 23.0565 79.3894 22.4921 79.5479 21.8386V19.5216C79.3894 18.9275 79.1023 18.4126 78.6864 17.977C78.2904 17.5215 77.8052 17.1651 77.2309 16.9076C76.6765 16.6304 76.0527 16.4918 75.3596 16.4918C74.6071 16.4918 73.914 16.6799 73.2803 17.0561C72.6664 17.4126 72.1713 17.9077 71.795 18.5414C71.4188 19.1751 71.2307 19.9078 71.2307 20.7395C71.2307 21.5514 71.4188 22.2841 71.795 22.9376C72.1713 23.5713 72.6763 24.0862 73.31 24.4823C73.9437 24.8585 74.6269 25.0467 75.3596 25.0467Z" fill="white"/>
<path d="M85.7196 25.5219C85.7196 25.0863 85.8781 24.7199 86.1949 24.4229C86.5315 24.106 86.8979 23.9476 87.294 23.9476C87.6504 23.9476 87.9871 24.106 88.3039 24.4229C88.6406 24.7199 88.8089 25.0863 88.8089 25.5219C88.8089 25.9972 88.6406 26.3834 88.3039 26.6804C87.9871 26.9576 87.6504 27.0963 87.294 27.0963C86.8979 27.0963 86.5315 26.9576 86.1949 26.6804C85.8781 26.3834 85.7196 25.9972 85.7196 25.5219Z" fill="white"/>
<path d="M92.1051 14.7986H94.8676V27.0963H92.1051V14.7986ZM91.8972 10.3429C91.8972 9.90726 92.0655 9.5409 92.4022 9.24386C92.7586 8.94681 93.1448 8.79829 93.5606 8.79829C93.9765 8.79829 94.3429 8.94681 94.6597 9.24386C94.9964 9.5409 95.1647 9.90726 95.1647 10.3429C95.1647 10.7984 94.9964 11.1747 94.6597 11.4717C94.3429 11.7489 93.9765 11.8876 93.5606 11.8876C93.1448 11.8876 92.7586 11.739 92.4022 11.442C92.0655 11.1449 91.8972 10.7786 91.8972 10.3429Z" fill="white"/>
<path d="M100.835 9.39238H103.598V14.858H106.984V17.0264H103.598V27.0963H100.835V17.0264H98.5779V14.858H100.835V9.39238Z" fill="white"/>
<path fill-rule="evenodd" clip-rule="evenodd" d="M8.62985 2.54712L10.1355 4.0528L7.2951 6.89325L10.1355 9.73369L8.62985 11.2394L4.28375 6.89325L8.62985 2.54712Z" fill="white"/>
<path fill-rule="evenodd" clip-rule="evenodd" d="M12.513 0L11.0073 1.50568L13.8477 4.34613L11.0073 7.18657L12.513 8.69225L16.8591 4.34613L12.513 0Z" fill="white"/>
<path fill-rule="evenodd" clip-rule="evenodd" d="M11.424 16.1572L17.4968 13.9462V19.5543L19.8923 18.7026V11.4751C19.8923 11.0132 19.4333 10.6918 18.9992 10.8498L10.6045 13.9062C10.4574 13.9597 10.2962 13.9597 10.1492 13.9062L1.75439 10.8498C1.32038 10.6918 0.861328 11.0132 0.861328 11.4751V26.9563C0.861328 27.236 1.03626 27.4859 1.2991 27.5816L10.1492 30.8037C10.2962 30.8573 10.4574 30.8573 10.6045 30.8037L19.4545 27.5816C19.7174 27.4859 19.8923 27.236 19.8923 26.9563V24.9036L16.289 26.1848L10.3768 28.3373L3.25684 25.745V13.9462L9.32964 16.1572C10.006 16.4034 10.7476 16.4034 11.424 16.1572Z" fill="white"/>
</svg>
