<svg width="164" height="58" viewBox="0 0 164 58" fill="none" xmlns="http://www.w3.org/2000/svg">
<path d="M42.0749 22.4681L42.482 27.8963L42.2558 27.1726C42.7383 26.0266 43.4319 25.0616 44.3366 24.2775C45.2715 23.4633 46.2365 22.8451 47.2317 22.4229C48.257 21.9705 49.1467 21.7443 49.9006 21.7443L49.6744 25.906C48.257 25.8155 47.0055 26.0869 45.9199 26.7202C44.8644 27.3535 44.02 28.1979 43.3867 29.2534C42.7835 30.3089 42.482 31.4398 42.482 32.6461V41.1956H38.3203V22.4681H42.0749ZM63.2178 41.6479C61.0767 41.6479 59.2371 41.2257 57.6991 40.3813C56.1611 39.5068 54.9699 38.3306 54.1255 36.853C53.3113 35.3451 52.9041 33.6262 52.9041 31.6961C52.9041 29.8565 53.3716 28.1828 54.3064 26.675C55.2413 25.1671 56.4928 23.9609 58.061 23.0562C59.6291 22.1515 61.3782 21.6991 63.3083 21.6991C65.7811 21.6991 67.8318 22.4229 69.4603 23.8704C71.0888 25.3179 72.1895 27.3083 72.7625 29.8415L57.3372 35.2697L56.342 32.7818L69.0079 28.1678L68.1032 28.7558C67.7413 27.7606 67.1382 26.9012 66.2938 26.1774C65.4494 25.4235 64.3487 25.0465 62.9916 25.0465C61.8457 25.0465 60.8203 25.333 59.9156 25.906C59.0109 26.4488 58.3022 27.2027 57.7896 28.1678C57.2769 29.1328 57.0206 30.2335 57.0206 31.4699C57.0206 32.7667 57.292 33.9127 57.8348 34.9078C58.3776 35.8729 59.1165 36.6419 60.0513 37.2148C61.0164 37.7577 62.102 38.0291 63.3083 38.0291C64.1225 38.0291 64.9066 37.8783 65.6605 37.5767C66.4446 37.2752 67.1684 36.8831 67.8318 36.4006L69.7769 39.5218C68.8421 40.1551 67.7866 40.6678 66.6105 41.0599C65.4645 41.4519 64.3336 41.6479 63.2178 41.6479ZM85.8143 41.6479C84.0652 41.6479 82.4669 41.2709 81.0194 40.517C79.602 39.7631 78.4711 38.6624 77.6267 37.2148C76.8125 35.7372 76.4053 33.9428 76.4053 31.8318C76.4053 29.751 76.8426 27.9567 77.7172 26.4488C78.5917 24.9108 79.7528 23.7347 81.2003 22.9205C82.678 22.1062 84.2914 21.6991 86.0405 21.6991C87.7896 21.6991 89.2673 22.1062 90.4735 22.9205C91.6798 23.7045 92.5996 24.6394 93.2329 25.7251L92.9615 26.4488L93.3686 22.4681H97.2589V41.1956H93.052V36.3101L93.5043 37.3958C93.3837 37.6974 93.1123 38.0894 92.6901 38.5719C92.298 39.0243 91.7552 39.4917 91.0616 39.9742C90.3982 40.4567 89.6292 40.8638 88.7546 41.1956C87.8801 41.4971 86.9 41.6479 85.8143 41.6479ZM86.9452 38.1648C88.0007 38.1648 88.9506 37.9688 89.795 37.5767C90.6394 37.1847 91.333 36.6419 91.8758 35.9483C92.4488 35.2245 92.8409 34.365 93.052 33.3698V29.7058C92.8107 28.8011 92.3885 28.017 91.7854 27.3535C91.1822 26.6599 90.4585 26.1322 89.6141 25.7703C88.7697 25.3782 87.8348 25.1822 86.8095 25.1822C85.6937 25.1822 84.6683 25.4536 83.7335 25.9965C82.7986 26.5393 82.0447 27.2932 81.4717 28.2582C80.9289 29.2233 80.6575 30.3541 80.6575 31.6509C80.6575 32.8572 80.944 33.9579 81.5169 34.9531C82.0899 35.9483 82.8589 36.7323 83.8239 37.3053C84.789 37.8783 85.8294 38.1648 86.9452 38.1648ZM112.138 41.6479C110.42 41.6479 108.851 41.2408 107.434 40.4266C106.047 39.5822 104.946 38.406 104.132 36.8982C103.318 35.3602 102.91 33.596 102.91 31.6057C102.91 29.5248 103.333 27.7456 104.177 26.2679C105.052 24.7902 106.228 23.6593 107.705 22.8752C109.183 22.0911 110.842 21.6991 112.681 21.6991C114.159 21.6991 115.561 22.0157 116.888 22.649C118.245 23.2823 119.301 24.1569 120.055 25.2727L119.874 26.7655V6.18336H124.035V41.1956H119.828V36.5363L120.281 37.7124C119.406 38.8584 118.275 39.8083 116.888 40.5623C115.501 41.286 113.918 41.6479 112.138 41.6479ZM113.45 38.0743C114.566 38.0743 115.561 37.8783 116.436 37.4863C117.31 37.0641 118.034 36.4911 118.607 35.7673C119.18 35.0435 119.587 34.1841 119.828 33.1889V29.6605C119.587 28.7558 119.15 27.9717 118.517 27.3083C117.914 26.6147 117.175 26.0719 116.3 25.6798C115.456 25.2576 114.506 25.0465 113.45 25.0465C112.304 25.0465 111.249 25.333 110.284 25.906C109.349 26.4488 108.595 27.2027 108.022 28.1678C107.449 29.1328 107.163 30.2486 107.163 31.5152C107.163 32.7516 107.449 33.8674 108.022 34.8626C108.595 35.8276 109.364 36.6117 110.329 37.2148C111.294 37.7878 112.334 38.0743 113.45 38.0743ZM129.227 38.7981C129.227 38.1346 129.468 37.5767 129.951 37.1244C130.464 36.6419 131.022 36.4006 131.625 36.4006C132.168 36.4006 132.68 36.6419 133.163 37.1244C133.675 37.5767 133.932 38.1346 133.932 38.7981C133.932 39.5218 133.675 40.1099 133.163 40.5623C132.68 40.9845 132.168 41.1956 131.625 41.1956C131.022 41.1956 130.464 40.9845 129.951 40.5623C129.468 40.1099 129.227 39.5218 129.227 38.7981ZM138.951 22.4681H143.158V41.1956H138.951V22.4681ZM138.635 15.6828C138.635 15.0193 138.891 14.4614 139.404 14.0091C139.947 13.5567 140.535 13.3305 141.168 13.3305C141.801 13.3305 142.359 13.5567 142.842 14.0091C143.354 14.4614 143.611 15.0193 143.611 15.6828C143.611 16.3764 143.354 16.9494 142.842 17.4017C142.359 17.8239 141.801 18.035 141.168 18.035C140.535 18.035 139.947 17.8089 139.404 17.3565C138.891 16.9041 138.635 16.3462 138.635 15.6828ZM152.246 14.2353H156.453V22.5586H161.61V25.8608H156.453V41.1956H152.246V25.8608H148.808V22.5586H152.246V14.2353Z" fill="#0E3131"/>
<path fill-rule="evenodd" clip-rule="evenodd" d="M11.8355 3.88159L14.1299 6.17598L9.80155 10.5043L14.1299 14.8326L11.8355 17.127L5.21277 10.5043L11.8355 3.88159Z" fill="#0E3131"/>
<path fill-rule="evenodd" clip-rule="evenodd" d="M17.7522 0L15.4578 2.29439L19.7861 6.62272L15.4578 10.951L17.7522 13.2454L24.3749 6.62272L17.7522 0Z" fill="#0E3131"/>
<path fill-rule="evenodd" clip-rule="evenodd" d="M16.0957 24.6215L25.3496 21.2523V34.5174L29 33.2196V17.4868C29 16.783 28.3005 16.2932 27.6391 16.534L14.8469 21.1914C14.6228 21.273 14.3772 21.273 14.1531 21.1914L1.36088 16.534C0.699514 16.2932 0 16.783 0 17.4868V41.0774C0 41.5036 0.266568 41.8844 0.667091 42.0302L14.1531 46.9402C14.3772 47.0218 14.6228 47.0218 14.8469 46.9402L28.3329 42.0302C28.7334 41.8844 29 41.5036 29 41.0774V37.9504L23.3967 39.9426L14.5 43.1817L3.65035 39.2316V21.2523L12.9043 24.6215C13.935 24.9967 15.065 24.9967 16.0957 24.6215Z" fill="#0E3131"/>
<path d="M40.062 54.5873C39.8038 54.5873 39.5341 54.5417 39.253 54.4505C38.9719 54.3518 38.744 54.196 38.5693 53.9833L38.82 53.63C38.9719 53.7896 39.1504 53.9187 39.3555 54.0175C39.5683 54.1087 39.7924 54.1542 40.0279 54.1542C40.2026 54.1542 40.3659 54.1314 40.5179 54.0859C40.6774 54.0327 40.8065 53.9453 40.9053 53.8238C41.0041 53.7022 41.0534 53.5389 41.0534 53.3338C41.0534 53.1211 40.9927 52.9577 40.8711 52.8438C40.7572 52.7298 40.609 52.6387 40.4267 52.5703C40.252 52.4943 40.0658 52.4259 39.8683 52.3652C39.5417 52.2588 39.272 52.1145 39.0593 51.9321C38.8541 51.7498 38.7516 51.4915 38.7516 51.1573C38.7516 50.9142 38.8086 50.7015 38.9225 50.5191C39.0441 50.3368 39.2074 50.1963 39.4125 50.0975C39.6176 49.9911 39.8493 49.938 40.1076 49.938C40.3431 49.938 40.5748 49.976 40.8027 50.0519C41.0382 50.1279 41.251 50.257 41.4409 50.4394L41.2016 50.8154C41.08 50.6483 40.9167 50.5343 40.7116 50.4735C40.5141 50.4128 40.3393 50.3786 40.1874 50.371C40.0583 50.371 39.9215 50.3976 39.7772 50.4508C39.6404 50.5039 39.5227 50.5837 39.4239 50.6901C39.3327 50.7888 39.2872 50.9218 39.2872 51.0889C39.2872 51.2636 39.3365 51.408 39.4353 51.5219C39.5341 51.6283 39.6594 51.7156 39.8114 51.784C39.9709 51.8524 40.1342 51.917 40.3014 51.9777C40.5217 52.0461 40.7268 52.1297 40.9167 52.2284C41.1142 52.3196 41.2738 52.4449 41.3953 52.6045C41.5244 52.7564 41.589 52.9615 41.589 53.2198C41.589 53.4781 41.532 53.7136 41.4181 53.9263C41.3041 54.1314 41.1332 54.2948 40.9053 54.4163C40.685 54.5303 40.4039 54.5873 40.062 54.5873ZM43.209 50.0405H43.7446V54.4961H43.209V50.0405ZM43.0951 48.3996C43.0951 48.2932 43.1369 48.2059 43.2204 48.1375C43.304 48.0615 43.3951 48.0236 43.4939 48.0236C43.6003 48.0236 43.6914 48.0615 43.7674 48.1375C43.8434 48.2059 43.8813 48.2932 43.8813 48.3996C43.8813 48.5136 43.8434 48.6085 43.7674 48.6845C43.6914 48.7529 43.6003 48.787 43.4939 48.787C43.3951 48.787 43.304 48.7491 43.2204 48.6731C43.1369 48.5971 43.0951 48.506 43.0951 48.3996ZM48.2299 54.5873C47.8045 54.5873 47.4056 54.4771 47.0334 54.2568C46.6612 54.0289 46.3877 53.7364 46.2129 53.3794L46.3041 53.1856V56.6384H45.7685V50.0063H46.2471L46.3041 51.4649L46.2015 51.1345C46.3991 50.7774 46.6877 50.4849 47.0676 50.257C47.4474 50.0215 47.8615 49.9038 48.3097 49.9038C48.7351 49.9038 49.1187 50.0063 49.4606 50.2115C49.8025 50.4166 50.0722 50.6977 50.2697 51.0547C50.4748 51.4042 50.5773 51.8068 50.5773 52.2626C50.5773 52.7108 50.471 53.1135 50.2583 53.4705C50.0532 53.82 49.7721 54.0935 49.415 54.291C49.0656 54.4885 48.6705 54.5873 48.2299 54.5873ZM48.1387 54.1428C48.4882 54.1428 48.8035 54.0593 49.0846 53.8921C49.3732 53.725 49.6011 53.5009 49.7683 53.2198C49.943 52.9311 50.0304 52.6121 50.0304 52.2626C50.0304 51.9056 49.9468 51.5865 49.7797 51.3054C49.6125 51.0167 49.3884 50.7888 49.1073 50.6217C48.8339 50.4546 48.5224 50.371 48.1729 50.371C47.8387 50.371 47.5348 50.447 47.2613 50.5989C46.9878 50.7508 46.7675 50.9559 46.6004 51.2142C46.4332 51.4725 46.3345 51.765 46.3041 52.0917V52.4563C46.3269 52.7678 46.4219 53.0527 46.589 53.311C46.7637 53.5693 46.984 53.7744 47.2499 53.9263C47.5234 54.0707 47.8197 54.1428 48.1387 54.1428ZM57.5076 54.5873C57.0821 54.5873 56.6947 54.4923 56.3452 54.3024C56.0034 54.1049 55.7299 53.8314 55.5248 53.4819C55.3273 53.1325 55.2285 52.726 55.2285 52.2626C55.2285 51.7688 55.3349 51.3472 55.5476 50.9977C55.7603 50.6407 56.049 50.371 56.4136 50.1887C56.7783 49.9987 57.1923 49.9038 57.6557 49.9038C58.0507 49.9038 58.423 50.0215 58.7724 50.257C59.1295 50.4925 59.384 50.7888 59.5359 51.1459L59.4562 51.3054L59.5245 50.0405H60.0031V54.4961H59.4676V53.1173L59.5815 53.3224C59.5283 53.4743 59.4372 53.6263 59.308 53.7782C59.1789 53.9225 59.0193 54.0593 58.8294 54.1884C58.6471 54.31 58.442 54.4087 58.2141 54.4847C57.9938 54.5531 57.7583 54.5873 57.5076 54.5873ZM57.6215 54.1314C57.9558 54.1314 58.2559 54.0631 58.5218 53.9263C58.7952 53.782 59.0155 53.5845 59.1827 53.3338C59.3498 53.0831 59.4448 52.7944 59.4676 52.4677V51.8296C59.4068 51.5485 59.2852 51.2978 59.1029 51.0775C58.9282 50.8572 58.7117 50.6825 58.4534 50.5533C58.1951 50.4242 57.914 50.3596 57.6101 50.3596C57.2759 50.3596 56.9682 50.4394 56.6871 50.5989C56.406 50.7508 56.1819 50.9673 56.0148 51.2484C55.8476 51.5295 55.7641 51.86 55.7641 52.2398C55.7641 52.5893 55.8476 52.9083 56.0148 53.197C56.1819 53.4781 56.406 53.706 56.6871 53.8807C56.9758 54.0479 57.2873 54.1314 57.6215 54.1314ZM68.9625 54.0631C68.7574 54.2302 68.5257 54.3593 68.2674 54.4505C68.0091 54.5417 67.7394 54.5873 67.4583 54.5873C67.0025 54.5873 66.5961 54.4885 66.2391 54.291C65.882 54.0859 65.6009 53.8086 65.3958 53.4591C65.1907 53.1097 65.0881 52.7108 65.0881 52.2626C65.0881 51.8144 65.1945 51.4156 65.4072 51.0661C65.6199 50.7166 65.901 50.4432 66.2504 50.2456C66.6075 50.0405 66.9949 49.938 67.4128 49.938C67.7242 49.938 68.0129 49.9835 68.2788 50.0747C68.5447 50.1659 68.7764 50.295 68.9739 50.4622L68.689 50.8268C68.5295 50.6977 68.3434 50.5913 68.1307 50.5077C67.918 50.4242 67.6901 50.3824 67.447 50.3824C67.1127 50.3824 66.805 50.4659 66.5239 50.6331C66.2504 50.8002 66.0301 51.0281 65.863 51.3168C65.7035 51.5979 65.6237 51.9132 65.6237 52.2626C65.6237 52.6045 65.7035 52.9197 65.863 53.2084C66.0301 53.4895 66.2542 53.7136 66.5353 53.8807C66.824 54.0479 67.1431 54.1314 67.4925 54.1314C67.7204 54.1314 67.9332 54.0973 68.1307 54.0289C68.3282 53.9529 68.5067 53.8542 68.6663 53.7326L68.9625 54.0631ZM70.0179 52.2398C70.0179 51.8068 70.1205 51.4118 70.3256 51.0547C70.5383 50.6977 70.8232 50.4166 71.1803 50.2115C71.5449 49.9987 71.9513 49.8924 72.3996 49.8924C72.8554 49.8924 73.2618 49.9987 73.6189 50.2115C73.9759 50.4166 74.257 50.6977 74.4621 51.0547C74.6672 51.4118 74.7698 51.8068 74.7698 52.2398C74.7698 52.6728 74.6672 53.0679 74.4621 53.4249C74.257 53.782 73.9721 54.0669 73.6075 54.2796C73.2504 54.4847 72.8478 54.5873 72.3996 54.5873C71.9437 54.5873 71.5373 54.4885 71.1803 54.291C70.8232 54.0859 70.5383 53.8086 70.3256 53.4591C70.1205 53.1021 70.0179 52.6956 70.0179 52.2398ZM70.5535 52.2512C70.5535 52.6007 70.6333 52.9197 70.7928 53.2084C70.9599 53.4895 71.1803 53.7136 71.4537 53.8807C71.7348 54.0479 72.0463 54.1314 72.3882 54.1314C72.73 54.1314 73.0377 54.0479 73.3112 53.8807C73.5923 53.7136 73.8126 53.4895 73.9721 53.2084C74.1392 52.9197 74.2228 52.6007 74.2228 52.2512C74.2228 51.9018 74.1392 51.5865 73.9721 51.3054C73.8126 51.0167 73.5923 50.7888 73.3112 50.6217C73.0377 50.447 72.73 50.3596 72.3882 50.3596C72.0387 50.3596 71.7234 50.4508 71.4423 50.6331C71.1689 50.8078 70.9524 51.0395 70.7928 51.3282C70.6333 51.6169 70.5535 51.9246 70.5535 52.2512ZM76.6563 54.4961V50.5419H75.8814V50.0519H76.6563V47.807C76.6563 47.0929 76.7779 46.5801 77.021 46.2687C77.2717 45.9496 77.6401 45.7901 78.1263 45.7901C78.2327 45.7901 78.3466 45.8053 78.4682 45.8357C78.5897 45.8584 78.6999 45.9002 78.7986 45.961L78.5707 46.3484C78.5176 46.3105 78.4568 46.2839 78.3884 46.2687C78.3276 46.2459 78.2555 46.2345 78.1719 46.2345C77.8452 46.2345 77.5983 46.3484 77.4312 46.5763C77.2717 46.8043 77.1919 47.2107 77.1919 47.7956V50.0519H78.6847V50.5419H77.1919V54.4961H76.6563ZM79.9382 54.4961V50.5419H79.1633V50.0519H79.9382V47.807C79.9382 47.0929 80.0597 46.5801 80.3028 46.2687C80.5535 45.9496 80.922 45.7901 81.4082 45.7901C81.5145 45.7901 81.6285 45.8053 81.75 45.8357C81.8716 45.8584 81.9817 45.9002 82.0805 45.961L81.8526 46.3484C81.7994 46.3105 81.7386 46.2839 81.6703 46.2687C81.6095 46.2459 81.5373 46.2345 81.4538 46.2345C81.1271 46.2345 80.8802 46.3484 80.7131 46.5763C80.5535 46.8043 80.4738 47.2107 80.4738 47.7956V50.0519H81.9665V50.5419H80.4738V54.4961H79.9382ZM85.2747 54.5873C84.8113 54.5873 84.401 54.4847 84.044 54.2796C83.6869 54.0745 83.4058 53.7972 83.2007 53.4477C83.0032 53.0907 82.9044 52.6918 82.9044 52.2512C82.9044 51.8182 83.0108 51.4232 83.2235 51.0661C83.4362 50.709 83.7211 50.4242 84.0782 50.2115C84.4428 49.9987 84.8454 49.8924 85.2861 49.8924C85.8178 49.8924 86.2623 50.0481 86.6193 50.3596C86.984 50.6711 87.246 51.0775 87.4056 51.5789L83.5084 53.0831L83.3489 52.6956L86.9156 51.3054L86.8016 51.4649C86.6725 51.1611 86.475 50.899 86.2091 50.6787C85.9508 50.4584 85.6317 50.3482 85.2519 50.3482C84.91 50.3482 84.6023 50.4318 84.3288 50.5989C84.0554 50.766 83.8351 50.9901 83.6679 51.2712C83.5084 51.5523 83.4286 51.8714 83.4286 52.2284C83.4286 52.5627 83.5046 52.8742 83.6565 53.1628C83.8161 53.4515 84.0364 53.6832 84.3175 53.858C84.5985 54.0327 84.9214 54.12 85.2861 54.12C85.5292 54.12 85.7609 54.0745 85.9812 53.9833C86.2091 53.8921 86.4104 53.7744 86.5851 53.63L86.8586 54.0175C86.6459 54.1846 86.399 54.3214 86.1179 54.4277C85.8444 54.5341 85.5633 54.5873 85.2747 54.5873ZM90.8277 54.5873C90.3642 54.5873 89.954 54.4847 89.597 54.2796C89.2399 54.0745 88.9588 53.7972 88.7537 53.4477C88.5562 53.0907 88.4574 52.6918 88.4574 52.2512C88.4574 51.8182 88.5638 51.4232 88.7765 51.0661C88.9892 50.709 89.2741 50.4242 89.6311 50.2115C89.9958 49.9987 90.3984 49.8924 90.839 49.8924C91.3708 49.8924 91.8152 50.0481 92.1723 50.3596C92.537 50.6711 92.799 51.0775 92.9586 51.5789L89.0614 53.0831L88.9018 52.6956L92.4686 51.3054L92.3546 51.4649C92.2255 51.1611 92.028 50.899 91.7621 50.6787C91.5038 50.4584 91.1847 50.3482 90.8049 50.3482C90.463 50.3482 90.1553 50.4318 89.8818 50.5989C89.6084 50.766 89.388 50.9901 89.2209 51.2712C89.0614 51.5523 88.9816 51.8714 88.9816 52.2284C88.9816 52.5627 89.0576 52.8742 89.2095 53.1628C89.3691 53.4515 89.5894 53.6832 89.8704 53.858C90.1515 54.0327 90.4744 54.12 90.839 54.12C91.0821 54.12 91.3139 54.0745 91.5342 53.9833C91.7621 53.8921 91.9634 53.7744 92.1381 53.63L92.4116 54.0175C92.1989 54.1846 91.952 54.3214 91.6709 54.4277C91.3974 54.5341 91.1163 54.5873 90.8277 54.5873ZM95.0588 53.5047C94.8917 53.8997 94.7283 54.291 94.5688 54.6784C94.4093 55.0735 94.2459 55.4723 94.0788 55.8749H93.623C93.7749 55.4723 93.9231 55.0735 94.0674 54.6784C94.2117 54.291 94.3561 53.8997 94.5004 53.5047H95.0588ZM100.697 50.0405L100.754 51.408L100.686 51.237C100.785 50.9635 100.94 50.728 101.153 50.5305C101.366 50.333 101.601 50.1811 101.86 50.0747C102.126 49.9684 102.38 49.9152 102.623 49.9152L102.6 50.4394C102.258 50.4394 101.947 50.5153 101.666 50.6673C101.392 50.8192 101.172 51.0243 101.005 51.2826C100.845 51.5333 100.766 51.8182 100.766 52.1373V54.4961H100.23V50.0405H100.697ZM105.884 54.5873C105.421 54.5873 105.011 54.4847 104.653 54.2796C104.296 54.0745 104.015 53.7972 103.81 53.4477C103.613 53.0907 103.514 52.6918 103.514 52.2512C103.514 51.8182 103.62 51.4232 103.833 51.0661C104.046 50.709 104.331 50.4242 104.688 50.2115C105.052 49.9987 105.455 49.8924 105.896 49.8924C106.427 49.8924 106.872 50.0481 107.229 50.3596C107.593 50.6711 107.856 51.0775 108.015 51.5789L104.118 53.0831L103.958 52.6956L107.525 51.3054L107.411 51.4649C107.282 51.1611 107.084 50.899 106.819 50.6787C106.56 50.4584 106.241 50.3482 105.861 50.3482C105.52 50.3482 105.212 50.4318 104.938 50.5989C104.665 50.766 104.445 50.9901 104.277 51.2712C104.118 51.5523 104.038 51.8714 104.038 52.2284C104.038 52.5627 104.114 52.8742 104.266 53.1628C104.426 53.4515 104.646 53.6832 104.927 53.858C105.208 54.0327 105.531 54.12 105.896 54.12C106.139 54.12 106.37 54.0745 106.591 53.9833C106.819 53.8921 107.02 53.7744 107.195 53.63L107.468 54.0175C107.255 54.1846 107.008 54.3214 106.727 54.4277C106.454 54.5341 106.173 54.5873 105.884 54.5873ZM111.346 54.5873C110.921 54.5873 110.533 54.4923 110.184 54.3024C109.842 54.1049 109.568 53.8314 109.363 53.4819C109.166 53.1325 109.067 52.726 109.067 52.2626C109.067 51.7688 109.173 51.3472 109.386 50.9977C109.599 50.6407 109.887 50.371 110.252 50.1887C110.617 49.9987 111.031 49.9038 111.494 49.9038C111.889 49.9038 112.261 50.0215 112.611 50.257C112.968 50.4925 113.222 50.7888 113.374 51.1459L113.295 51.3054L113.363 50.0405H113.842V54.4961H113.306V53.1173L113.42 53.3224C113.367 53.4743 113.276 53.6263 113.146 53.7782C113.017 53.9225 112.858 54.0593 112.668 54.1884C112.486 54.31 112.28 54.4087 112.052 54.4847C111.832 54.5531 111.597 54.5873 111.346 54.5873ZM111.46 54.1314C111.794 54.1314 112.094 54.0631 112.36 53.9263C112.634 53.782 112.854 53.5845 113.021 53.3338C113.188 53.0831 113.283 52.7944 113.306 52.4677V51.8296C113.245 51.5485 113.124 51.2978 112.941 51.0775C112.767 50.8572 112.55 50.6825 112.292 50.5533C112.034 50.4242 111.752 50.3596 111.449 50.3596C111.114 50.3596 110.807 50.4394 110.526 50.5989C110.244 50.7508 110.02 50.9673 109.853 51.2484C109.686 51.5295 109.603 51.86 109.603 52.2398C109.603 52.5893 109.686 52.9083 109.853 53.197C110.02 53.4781 110.244 53.706 110.526 53.8807C110.814 54.0479 111.126 54.1314 111.46 54.1314ZM117.689 54.5873C117.271 54.5873 116.891 54.4885 116.549 54.291C116.207 54.0859 115.934 53.8048 115.729 53.4477C115.531 53.0907 115.432 52.688 115.432 52.2398C115.432 51.7612 115.535 51.3472 115.74 50.9977C115.945 50.6483 116.222 50.3786 116.572 50.1887C116.929 49.9987 117.32 49.9038 117.746 49.9038C118.171 49.9038 118.574 50.0139 118.953 50.2342C119.341 50.4546 119.622 50.7432 119.797 51.1003L119.706 51.351V45.8357H120.241V54.4961H119.694V53.1287L119.808 53.3794C119.618 53.7364 119.333 54.0289 118.953 54.2568C118.574 54.4771 118.152 54.5873 117.689 54.5873ZM117.825 54.12C118.167 54.12 118.475 54.0479 118.748 53.9035C119.022 53.7516 119.242 53.5503 119.409 53.2996C119.576 53.0413 119.671 52.7526 119.694 52.4335V51.8638C119.641 51.5751 119.523 51.3168 119.341 51.0889C119.159 50.861 118.938 50.6825 118.68 50.5533C118.422 50.4166 118.137 50.3482 117.825 50.3482C117.483 50.3482 117.172 50.428 116.891 50.5875C116.61 50.747 116.386 50.9673 116.219 51.2484C116.051 51.5295 115.968 51.8562 115.968 52.2284C115.968 52.5779 116.051 52.897 116.219 53.1856C116.386 53.4667 116.61 53.6946 116.891 53.8694C117.18 54.0365 117.491 54.12 117.825 54.12ZM127.604 54.5873C127.179 54.5873 126.791 54.4923 126.442 54.3024C126.1 54.1049 125.827 53.8314 125.622 53.4819C125.424 53.1325 125.325 52.726 125.325 52.2626C125.325 51.7688 125.432 51.3472 125.644 50.9977C125.857 50.6407 126.146 50.371 126.51 50.1887C126.875 49.9987 127.289 49.9038 127.752 49.9038C128.148 49.9038 128.52 50.0215 128.869 50.257C129.226 50.4925 129.481 50.7888 129.633 51.1459L129.553 51.3054L129.621 50.0405H130.1V54.4961H129.564V53.1173L129.678 53.3224C129.625 53.4743 129.534 53.6263 129.405 53.7782C129.276 53.9225 129.116 54.0593 128.926 54.1884C128.744 54.31 128.539 54.4087 128.311 54.4847C128.091 54.5531 127.855 54.5873 127.604 54.5873ZM127.718 54.1314C128.053 54.1314 128.353 54.0631 128.619 53.9263C128.892 53.782 129.112 53.5845 129.279 53.3338C129.447 53.0831 129.542 52.7944 129.564 52.4677V51.8296C129.504 51.5485 129.382 51.2978 129.2 51.0775C129.025 50.8572 128.808 50.6825 128.55 50.5533C128.292 50.4242 128.011 50.3596 127.707 50.3596C127.373 50.3596 127.065 50.4394 126.784 50.5989C126.503 50.7508 126.279 50.9673 126.112 51.2484C125.944 51.5295 125.861 51.86 125.861 52.2398C125.861 52.5893 125.944 52.9083 126.112 53.197C126.279 53.4781 126.503 53.706 126.784 53.8807C127.073 54.0479 127.384 54.1314 127.718 54.1314ZM138.114 54.5873C137.658 54.5873 137.24 54.4695 136.86 54.234C136.488 53.9985 136.214 53.7022 136.04 53.3452L136.154 53.0375V54.4961H135.618V45.8357H136.154V51.351L136.085 51.0547C136.26 50.7053 136.537 50.428 136.917 50.2228C137.297 50.0101 137.715 49.9038 138.17 49.9038C138.588 49.9038 138.968 50.0063 139.31 50.2115C139.652 50.409 139.922 50.6825 140.119 51.0319C140.324 51.3814 140.427 51.7802 140.427 52.2284C140.427 52.7298 140.32 53.159 140.108 53.5161C139.895 53.8656 139.614 54.1314 139.264 54.3138C138.915 54.4961 138.531 54.5873 138.114 54.5873ZM138.022 54.12C138.402 54.12 138.729 54.0403 139.002 53.8807C139.283 53.7136 139.5 53.4895 139.652 53.2084C139.804 52.9197 139.88 52.5931 139.88 52.2284C139.88 51.8866 139.8 51.5751 139.64 51.294C139.489 51.0053 139.272 50.7774 138.991 50.6103C138.717 50.4356 138.395 50.3482 138.022 50.3482C137.711 50.3482 137.422 50.4128 137.156 50.5419C136.898 50.6711 136.681 50.8458 136.507 51.0661C136.332 51.2864 136.214 51.5409 136.154 51.8296V52.5247C136.184 52.8058 136.283 53.0679 136.45 53.311C136.617 53.5541 136.837 53.7516 137.111 53.9035C137.384 54.0479 137.688 54.12 138.022 54.12ZM141.584 52.2398C141.584 51.8068 141.686 51.4118 141.891 51.0547C142.104 50.6977 142.389 50.4166 142.746 50.2115C143.111 49.9987 143.517 49.8924 143.965 49.8924C144.421 49.8924 144.828 49.9987 145.185 50.2115C145.542 50.4166 145.823 50.6977 146.028 51.0547C146.233 51.4118 146.335 51.8068 146.335 52.2398C146.335 52.6728 146.233 53.0679 146.028 53.4249C145.823 53.782 145.538 54.0669 145.173 54.2796C144.816 54.4847 144.413 54.5873 143.965 54.5873C143.509 54.5873 143.103 54.4885 142.746 54.291C142.389 54.0859 142.104 53.8086 141.891 53.4591C141.686 53.1021 141.584 52.6956 141.584 52.2398ZM142.119 52.2512C142.119 52.6007 142.199 52.9197 142.359 53.2084C142.526 53.4895 142.746 53.7136 143.019 53.8807C143.301 54.0479 143.612 54.1314 143.954 54.1314C144.296 54.1314 144.603 54.0479 144.877 53.8807C145.158 53.7136 145.378 53.4895 145.538 53.2084C145.705 52.9197 145.789 52.6007 145.789 52.2512C145.789 51.9018 145.705 51.5865 145.538 51.3054C145.378 51.0167 145.158 50.7888 144.877 50.6217C144.603 50.447 144.296 50.3596 143.954 50.3596C143.604 50.3596 143.289 50.4508 143.008 50.6331C142.735 50.8078 142.518 51.0395 142.359 51.3282C142.199 51.6169 142.119 51.9246 142.119 52.2512ZM147.493 52.2398C147.493 51.8068 147.595 51.4118 147.8 51.0547C148.013 50.6977 148.298 50.4166 148.655 50.2115C149.02 49.9987 149.426 49.8924 149.874 49.8924C150.33 49.8924 150.737 49.9987 151.094 50.2115C151.451 50.4166 151.732 50.6977 151.937 51.0547C152.142 51.4118 152.245 51.8068 152.245 52.2398C152.245 52.6728 152.142 53.0679 151.937 53.4249C151.732 53.782 151.447 54.0669 151.082 54.2796C150.725 54.4847 150.323 54.5873 149.874 54.5873C149.419 54.5873 149.012 54.4885 148.655 54.291C148.298 54.0859 148.013 53.8086 147.8 53.4591C147.595 53.1021 147.493 52.6956 147.493 52.2398ZM148.028 52.2512C148.028 52.6007 148.108 52.9197 148.268 53.2084C148.435 53.4895 148.655 53.7136 148.929 53.8807C149.21 54.0479 149.521 54.1314 149.863 54.1314C150.205 54.1314 150.512 54.0479 150.786 53.8807C151.067 53.7136 151.287 53.4895 151.447 53.2084C151.614 52.9197 151.698 52.6007 151.698 52.2512C151.698 51.9018 151.614 51.5865 151.447 51.3054C151.287 51.0167 151.067 50.7888 150.786 50.6217C150.512 50.447 150.205 50.3596 149.863 50.3596C149.514 50.3596 149.198 50.4508 148.917 50.6331C148.644 50.8078 148.427 51.0395 148.268 51.3282C148.108 51.6169 148.028 51.9246 148.028 52.2512ZM153.835 54.4961V45.8357H154.37V54.4961H153.835ZM155.396 51.6017L157.47 54.4961H156.843L155.02 51.898L155.396 51.6017ZM154.188 52.878L154.143 52.3424L156.866 49.9494L157.196 50.2342L154.188 52.878Z" fill="#0E3131"/>
</svg>
