<svg width="107" height="31" viewBox="0 0 107 31" fill="none" xmlns="http://www.w3.org/2000/svg">
<path d="M27.6288 14.7986L27.8961 18.3631L27.7476 17.8879C28.0645 17.1354 28.5199 16.5017 29.114 15.9868C29.7279 15.4521 30.3616 15.0461 31.0151 14.7689C31.6884 14.4719 32.2726 14.3233 32.7676 14.3233L32.6191 17.0561C31.6884 16.9967 30.8666 17.175 30.1537 17.5908C29.4606 18.0067 28.9061 18.5612 28.4902 19.2543C28.0942 19.9474 27.8961 20.69 27.8961 21.4821V27.0963H25.1633V14.7986H27.6288Z" fill="#0E3131"/>
<path d="M41.5125 27.3933C40.1065 27.3933 38.8986 27.1161 37.8886 26.5616C36.8787 25.9873 36.0964 25.215 35.542 24.2446C35.0073 23.2545 34.74 22.1257 34.74 20.8583C34.74 19.6503 35.0469 18.5513 35.6608 17.5611C36.2747 16.571 37.0965 15.7788 38.1262 15.1848C39.156 14.5907 40.3046 14.2936 41.5719 14.2936C43.1958 14.2936 44.5424 14.7689 45.6117 15.7194C46.6811 16.67 47.4039 17.977 47.7801 19.6404L37.651 23.205L36.9975 21.5712L45.3147 18.5414L44.7206 18.9275C44.483 18.274 44.0869 17.7096 43.5324 17.2344C42.9779 16.7393 42.2551 16.4918 41.364 16.4918C40.6115 16.4918 39.9382 16.6799 39.3441 17.0561C38.75 17.4126 38.2847 17.9077 37.948 18.5414C37.6114 19.1751 37.443 19.8979 37.443 20.7098C37.443 21.5613 37.6213 22.3138 37.9777 22.9673C38.3342 23.601 38.8193 24.106 39.4332 24.4823C40.0669 24.8387 40.7798 25.0169 41.5719 25.0169C42.1066 25.0169 42.6215 24.9179 43.1166 24.7199C43.6314 24.5219 44.1067 24.2644 44.5424 23.9476L45.8197 25.9972C45.2058 26.4131 44.5127 26.7497 43.7404 27.0072C42.9878 27.2646 42.2452 27.3933 41.5125 27.3933Z" fill="#0E3131"/>
<path d="M56.3508 27.3933C55.2022 27.3933 54.1526 27.1458 53.2021 26.6507C52.2714 26.1556 51.5288 25.4328 50.9743 24.4823C50.4396 23.5119 50.1723 22.3336 50.1723 20.9474C50.1723 19.581 50.4594 18.4027 51.0337 17.4126C51.608 16.4026 52.3704 15.6303 53.3209 15.0956C54.2913 14.561 55.3507 14.2936 56.4993 14.2936C57.6478 14.2936 58.6182 14.561 59.4103 15.0956C60.2024 15.6105 60.8064 16.2244 61.2223 16.9373L61.044 17.4126L61.3114 14.7986H63.8659V27.0963H61.1034V23.8882L61.4005 24.6011C61.3213 24.7991 61.1431 25.0566 60.8658 25.3734C60.6084 25.6704 60.2519 25.9774 59.7965 26.2942C59.3608 26.6111 58.8558 26.8784 58.2815 27.0963C57.7073 27.2943 57.0637 27.3933 56.3508 27.3933ZM57.0934 25.1061C57.7865 25.1061 58.4103 24.9773 58.9647 24.7199C59.5192 24.4625 59.9747 24.106 60.3311 23.6505C60.7074 23.1753 60.9648 22.6109 61.1034 21.9574V19.5513C60.945 18.9572 60.6678 18.4424 60.2717 18.0067C59.8757 17.5512 59.4004 17.2047 58.8459 16.967C58.2914 16.7096 57.6776 16.5809 57.0043 16.5809C56.2715 16.5809 55.5983 16.7591 54.9844 17.1156C54.3705 17.472 53.8754 17.9671 53.4991 18.6008C53.1427 19.2345 52.9645 19.9771 52.9645 20.8286C52.9645 21.6207 53.1526 22.3435 53.5289 22.997C53.9051 23.6505 54.4101 24.1654 55.0438 24.5417C55.6775 24.9179 56.3607 25.1061 57.0934 25.1061Z" fill="#0E3131"/>
<path d="M73.6368 27.3933C72.508 27.3933 71.4783 27.126 70.5476 26.5913C69.6366 26.0368 68.9138 25.2645 68.3791 24.2743C67.8445 23.2644 67.5771 22.1059 67.5771 20.7989C67.5771 19.4325 67.8544 18.2641 68.4089 17.2938C68.9831 16.3234 69.7554 15.5808 70.7258 15.0659C71.6961 14.5511 72.7853 14.2936 73.9933 14.2936C74.9636 14.2936 75.8844 14.5016 76.7558 14.9174C77.6469 15.3333 78.34 15.9076 78.8351 16.6403L78.7162 17.6205V4.10498H81.449V27.0963H78.6865V24.0367L78.9836 24.809C78.4093 25.5615 77.6667 26.1853 76.7558 26.6804C75.8448 27.1557 74.8052 27.3933 73.6368 27.3933ZM74.4982 25.0467C75.2309 25.0467 75.8844 24.9179 76.4587 24.6605C77.033 24.3833 77.5083 24.007 77.8845 23.5317C78.2608 23.0565 78.5281 22.4921 78.6865 21.8386V19.5216C78.5281 18.9275 78.241 18.4126 77.8251 17.977C77.4291 17.5215 76.9439 17.1651 76.3696 16.9076C75.8151 16.6304 75.1913 16.4918 74.4982 16.4918C73.7457 16.4918 73.0526 16.6799 72.4189 17.0561C71.805 17.4126 71.31 17.9077 70.9337 18.5414C70.5575 19.1751 70.3693 19.9078 70.3693 20.7395C70.3693 21.5514 70.5575 22.2841 70.9337 22.9376C71.31 23.5713 71.8149 24.0862 72.4486 24.4823C73.0823 24.8585 73.7655 25.0467 74.4982 25.0467Z" fill="#0E3131"/>
<path d="M84.8583 25.5219C84.8583 25.0863 85.0167 24.7199 85.3336 24.4229C85.6702 24.106 86.0366 23.9476 86.4326 23.9476C86.7891 23.9476 87.1257 24.106 87.4426 24.4229C87.7792 24.7199 87.9476 25.0863 87.9476 25.5219C87.9476 25.9972 87.7792 26.3834 87.4426 26.6804C87.1257 26.9576 86.7891 27.0963 86.4326 27.0963C86.0366 27.0963 85.6702 26.9576 85.3336 26.6804C85.0167 26.3834 84.8583 25.9972 84.8583 25.5219Z" fill="#0E3131"/>
<path d="M91.2438 14.7986H94.0063V27.0963H91.2438V14.7986ZM91.0359 10.3429C91.0359 9.90726 91.2042 9.5409 91.5409 9.24386C91.8973 8.94681 92.2835 8.79829 92.6993 8.79829C93.1152 8.79829 93.4815 8.94681 93.7984 9.24386C94.135 9.5409 94.3034 9.90726 94.3034 10.3429C94.3034 10.7984 94.135 11.1747 93.7984 11.4717C93.4815 11.7489 93.1152 11.8876 92.6993 11.8876C92.2835 11.8876 91.8973 11.739 91.5409 11.442C91.2042 11.1449 91.0359 10.7786 91.0359 10.3429Z" fill="#0E3131"/>
<path d="M99.9741 9.39238H102.737V14.858H106.123V17.0264H102.737V27.0963H99.9741V17.0264H97.7166V14.858H99.9741V9.39238Z" fill="#0E3131"/>
<path fill-rule="evenodd" clip-rule="evenodd" d="M7.76852 2.54712L9.27419 4.0528L6.43377 6.89325L9.27419 9.73369L7.76852 11.2394L3.42242 6.89325L7.76852 2.54712Z" fill="#0E3131"/>
<path fill-rule="evenodd" clip-rule="evenodd" d="M11.6516 0L10.146 1.50568L12.9864 4.34613L10.146 7.18657L11.6516 8.69225L15.9977 4.34613L11.6516 0Z" fill="#0E3131"/>
<path fill-rule="evenodd" clip-rule="evenodd" d="M10.5627 16.1572L16.6355 13.9462V19.5576L19.031 18.7059V11.4751C19.031 11.0132 18.5719 10.6918 18.1379 10.8498L9.74314 13.9062C9.59609 13.9597 9.43489 13.9597 9.28784 13.9062L0.893066 10.8498C0.459049 10.6918 0 11.0132 0 11.4751V26.9563C0 27.236 0.174933 27.4859 0.437772 27.5816L9.28784 30.8037C9.43489 30.8573 9.59609 30.8573 9.74314 30.8037L18.5932 27.5816C18.856 27.4859 19.031 27.236 19.031 26.9563V24.9046L15.3141 26.2261L9.51549 28.3373L2.39551 25.745V13.9462L8.46831 16.1572C9.14471 16.4034 9.88627 16.4034 10.5627 16.1572Z" fill="#0E3131"/>
</svg>
