<svg width="164" height="58" viewBox="0 0 164 58" fill="none" xmlns="http://www.w3.org/2000/svg">
<path d="M42.0749 22.4681L42.482 27.8963L42.2558 27.1726C42.7383 26.0266 43.4319 25.0616 44.3366 24.2775C45.2715 23.4633 46.2365 22.8451 47.2317 22.4229C48.257 21.9705 49.1467 21.7443 49.9006 21.7443L49.6744 25.906C48.257 25.8155 47.0055 26.0869 45.9199 26.7202C44.8644 27.3535 44.02 28.1979 43.3867 29.2534C42.7835 30.3089 42.482 31.4398 42.482 32.6461V41.1956H38.3203V22.4681H42.0749ZM63.2178 41.6479C61.0767 41.6479 59.2371 41.2257 57.6991 40.3813C56.1611 39.5068 54.9699 38.3306 54.1255 36.853C53.3113 35.3451 52.9041 33.6262 52.9041 31.6961C52.9041 29.8565 53.3716 28.1828 54.3064 26.675C55.2413 25.1671 56.4928 23.9609 58.061 23.0562C59.6291 22.1515 61.3782 21.6991 63.3083 21.6991C65.7811 21.6991 67.8318 22.4229 69.4603 23.8704C71.0888 25.3179 72.1895 27.3083 72.7625 29.8415L57.3372 35.2697L56.342 32.7818L69.0079 28.1678L68.1032 28.7558C67.7413 27.7606 67.1382 26.9012 66.2938 26.1774C65.4494 25.4235 64.3487 25.0465 62.9916 25.0465C61.8457 25.0465 60.8203 25.333 59.9156 25.906C59.0109 26.4488 58.3022 27.2027 57.7896 28.1678C57.2769 29.1328 57.0206 30.2335 57.0206 31.4699C57.0206 32.7667 57.292 33.9127 57.8348 34.9078C58.3776 35.8729 59.1165 36.6419 60.0513 37.2148C61.0164 37.7577 62.102 38.0291 63.3083 38.0291C64.1225 38.0291 64.9066 37.8783 65.6605 37.5767C66.4446 37.2752 67.1684 36.8831 67.8318 36.4006L69.7769 39.5218C68.8421 40.1551 67.7866 40.6678 66.6105 41.0599C65.4645 41.4519 64.3336 41.6479 63.2178 41.6479ZM85.8143 41.6479C84.0652 41.6479 82.4669 41.2709 81.0194 40.517C79.602 39.7631 78.4711 38.6624 77.6267 37.2148C76.8125 35.7372 76.4053 33.9428 76.4053 31.8318C76.4053 29.751 76.8426 27.9567 77.7172 26.4488C78.5917 24.9108 79.7528 23.7347 81.2003 22.9205C82.678 22.1062 84.2914 21.6991 86.0405 21.6991C87.7896 21.6991 89.2673 22.1062 90.4735 22.9205C91.6798 23.7045 92.5996 24.6394 93.2329 25.7251L92.9615 26.4488L93.3686 22.4681H97.2589V41.1956H93.052V36.3101L93.5043 37.3958C93.3837 37.6974 93.1123 38.0894 92.6901 38.5719C92.298 39.0243 91.7552 39.4917 91.0616 39.9742C90.3982 40.4567 89.6292 40.8638 88.7546 41.1956C87.8801 41.4971 86.9 41.6479 85.8143 41.6479ZM86.9452 38.1648C88.0007 38.1648 88.9506 37.9688 89.795 37.5767C90.6394 37.1847 91.333 36.6419 91.8758 35.9483C92.4488 35.2245 92.8409 34.365 93.052 33.3698V29.7058C92.8107 28.8011 92.3885 28.017 91.7854 27.3535C91.1822 26.6599 90.4585 26.1322 89.6141 25.7703C88.7697 25.3782 87.8348 25.1822 86.8095 25.1822C85.6937 25.1822 84.6683 25.4536 83.7335 25.9965C82.7986 26.5393 82.0447 27.2932 81.4717 28.2582C80.9289 29.2233 80.6575 30.3541 80.6575 31.6509C80.6575 32.8572 80.944 33.9579 81.5169 34.9531C82.0899 35.9483 82.8589 36.7323 83.8239 37.3053C84.789 37.8783 85.8294 38.1648 86.9452 38.1648ZM112.138 41.6479C110.42 41.6479 108.851 41.2408 107.434 40.4266C106.047 39.5822 104.946 38.406 104.132 36.8982C103.318 35.3602 102.91 33.596 102.91 31.6057C102.91 29.5248 103.333 27.7456 104.177 26.2679C105.052 24.7902 106.228 23.6593 107.705 22.8752C109.183 22.0911 110.842 21.6991 112.681 21.6991C114.159 21.6991 115.561 22.0157 116.888 22.649C118.245 23.2823 119.301 24.1569 120.055 25.2727L119.874 26.7655V6.18336H124.035V41.1956H119.828V36.5363L120.281 37.7124C119.406 38.8584 118.275 39.8083 116.888 40.5623C115.501 41.286 113.918 41.6479 112.138 41.6479ZM113.45 38.0743C114.566 38.0743 115.561 37.8783 116.436 37.4863C117.31 37.0641 118.034 36.4911 118.607 35.7673C119.18 35.0435 119.587 34.1841 119.828 33.1889V29.6605C119.587 28.7558 119.15 27.9717 118.517 27.3083C117.914 26.6147 117.175 26.0719 116.3 25.6798C115.456 25.2576 114.506 25.0465 113.45 25.0465C112.304 25.0465 111.249 25.333 110.284 25.906C109.349 26.4488 108.595 27.2027 108.022 28.1678C107.449 29.1328 107.163 30.2486 107.163 31.5152C107.163 32.7516 107.449 33.8674 108.022 34.8626C108.595 35.8276 109.364 36.6117 110.329 37.2148C111.294 37.7878 112.334 38.0743 113.45 38.0743ZM129.227 38.7981C129.227 38.1346 129.468 37.5767 129.951 37.1244C130.464 36.6419 131.022 36.4006 131.625 36.4006C132.168 36.4006 132.68 36.6419 133.163 37.1244C133.675 37.5767 133.932 38.1346 133.932 38.7981C133.932 39.5218 133.675 40.1099 133.163 40.5623C132.68 40.9845 132.168 41.1956 131.625 41.1956C131.022 41.1956 130.464 40.9845 129.951 40.5623C129.468 40.1099 129.227 39.5218 129.227 38.7981ZM138.951 22.4681H143.158V41.1956H138.951V22.4681ZM138.635 15.6828C138.635 15.0193 138.891 14.4614 139.404 14.0091C139.947 13.5567 140.535 13.3305 141.168 13.3305C141.801 13.3305 142.359 13.5567 142.842 14.0091C143.354 14.4614 143.611 15.0193 143.611 15.6828C143.611 16.3764 143.354 16.9494 142.842 17.4017C142.359 17.8239 141.801 18.035 141.168 18.035C140.535 18.035 139.947 17.8089 139.404 17.3565C138.891 16.9041 138.635 16.3462 138.635 15.6828ZM152.246 14.2353H156.453V22.5586H161.61V25.8608H156.453V41.1956H152.246V25.8608H148.808V22.5586H152.246V14.2353Z" fill="white"/>
<path fill-rule="evenodd" clip-rule="evenodd" d="M11.8355 3.88159L14.1299 6.17598L9.80156 10.5043L14.1299 14.8326L11.8355 17.127L5.21278 10.5043L11.8355 3.88159Z" fill="white"/>
<path fill-rule="evenodd" clip-rule="evenodd" d="M17.7522 0L15.4578 2.29439L19.7861 6.62272L15.4578 10.951L17.7522 13.2454L24.3749 6.62272L17.7522 0Z" fill="white"/>
<path fill-rule="evenodd" clip-rule="evenodd" d="M16.0957 24.6215L25.3496 21.2523V34.5171L29 33.2192V17.4868C29 16.783 28.3005 16.2932 27.6391 16.534L14.8469 21.1914C14.6228 21.273 14.3772 21.273 14.1531 21.1914L1.36088 16.534C0.699514 16.2932 0 16.783 0 17.4868V41.0774C0 41.5036 0.266568 41.8844 0.667091 42.0302L14.1531 46.9402C14.3772 47.0218 14.6228 47.0218 14.8469 46.9402L28.3329 42.0302C28.7334 41.8844 29 41.5036 29 41.0774V37.9501L23.4374 39.9278L14.5 43.1817L3.65035 39.2316V21.2523L12.9043 24.6215C13.935 24.9967 15.065 24.9967 16.0957 24.6215Z" fill="white"/>
<path d="M40.063 54.5873C39.8047 54.5873 39.535 54.5417 39.254 54.4505C38.9729 54.3518 38.745 54.196 38.5702 53.9833L38.8209 53.63C38.9729 53.7896 39.1514 53.9187 39.3565 54.0175C39.5692 54.1087 39.7933 54.1542 40.0288 54.1542C40.2036 54.1542 40.3669 54.1314 40.5188 54.0859C40.6784 54.0327 40.8075 53.9453 40.9063 53.8238C41.005 53.7022 41.0544 53.5389 41.0544 53.3338C41.0544 53.1211 40.9936 52.9577 40.8721 52.8438C40.7581 52.7298 40.61 52.6387 40.4277 52.5703C40.2529 52.4943 40.0668 52.4259 39.8693 52.3652C39.5426 52.2588 39.273 52.1145 39.0602 51.9321C38.8551 51.7498 38.7526 51.4915 38.7526 51.1573C38.7526 50.9142 38.8095 50.7015 38.9235 50.5191C39.045 50.3368 39.2084 50.1963 39.4135 50.0975C39.6186 49.9911 39.8503 49.938 40.1086 49.938C40.3441 49.938 40.5758 49.976 40.8037 50.0519C41.0392 50.1279 41.2519 50.257 41.4419 50.4394L41.2026 50.8154C41.081 50.6483 40.9177 50.5343 40.7126 50.4735C40.515 50.4128 40.3403 50.3786 40.1884 50.371C40.0592 50.371 39.9225 50.3976 39.7781 50.4508C39.6414 50.5039 39.5236 50.5837 39.4249 50.6901C39.3337 50.7888 39.2881 50.9218 39.2881 51.0889C39.2881 51.2636 39.3375 51.408 39.4363 51.5219C39.535 51.6283 39.6604 51.7156 39.8123 51.784C39.9719 51.8524 40.1352 51.917 40.3023 51.9777C40.5226 52.0461 40.7278 52.1297 40.9177 52.2284C41.1152 52.3196 41.2747 52.4449 41.3963 52.6045C41.5254 52.7564 41.59 52.9615 41.59 53.2198C41.59 53.4781 41.533 53.7136 41.4191 53.9263C41.3051 54.1314 41.1342 54.2948 40.9063 54.4163C40.686 54.5303 40.4049 54.5873 40.063 54.5873ZM43.21 50.0405H43.7456V54.4961H43.21V50.0405ZM43.096 48.3996C43.096 48.2932 43.1378 48.2059 43.2214 48.1375C43.305 48.0615 43.3961 48.0236 43.4949 48.0236C43.6012 48.0236 43.6924 48.0615 43.7684 48.1375C43.8443 48.2059 43.8823 48.2932 43.8823 48.3996C43.8823 48.5136 43.8443 48.6085 43.7684 48.6845C43.6924 48.7529 43.6012 48.787 43.4949 48.787C43.3961 48.787 43.305 48.7491 43.2214 48.6731C43.1378 48.5971 43.096 48.506 43.096 48.3996ZM48.2309 54.5873C47.8055 54.5873 47.4066 54.4771 47.0344 54.2568C46.6621 54.0289 46.3886 53.7364 46.2139 53.3794L46.3051 53.1856V56.6384H45.7695V50.0063H46.2481L46.3051 51.4649L46.2025 51.1345C46.4 50.7774 46.6887 50.4849 47.0686 50.257C47.4484 50.0215 47.8624 49.9038 48.3107 49.9038C48.7361 49.9038 49.1197 50.0063 49.4616 50.2115C49.8034 50.4166 50.0731 50.6977 50.2706 51.0547C50.4758 51.4042 50.5783 51.8068 50.5783 52.2626C50.5783 52.7108 50.472 53.1135 50.2593 53.4705C50.0541 53.82 49.7731 54.0935 49.416 54.291C49.0665 54.4885 48.6715 54.5873 48.2309 54.5873ZM48.1397 54.1428C48.4892 54.1428 48.8045 54.0593 49.0855 53.8921C49.3742 53.725 49.6021 53.5009 49.7693 53.2198C49.944 52.9311 50.0313 52.6121 50.0313 52.2626C50.0313 51.9056 49.9478 51.5865 49.7806 51.3054C49.6135 51.0167 49.3894 50.7888 49.1083 50.6217C48.8348 50.4546 48.5234 50.371 48.1739 50.371C47.8396 50.371 47.5358 50.447 47.2623 50.5989C46.9888 50.7508 46.7685 50.9559 46.6014 51.2142C46.4342 51.4725 46.3355 51.765 46.3051 52.0917V52.4563C46.3279 52.7678 46.4228 53.0527 46.59 53.311C46.7647 53.5693 46.985 53.7744 47.2509 53.9263C47.5244 54.0707 47.8207 54.1428 48.1397 54.1428ZM57.5085 54.5873C57.0831 54.5873 56.6957 54.4923 56.3462 54.3024C56.0044 54.1049 55.7309 53.8314 55.5258 53.4819C55.3282 53.1325 55.2295 52.726 55.2295 52.2626C55.2295 51.7688 55.3358 51.3472 55.5485 50.9977C55.7613 50.6407 56.0499 50.371 56.4146 50.1887C56.7792 49.9987 57.1933 49.9038 57.6567 49.9038C58.0517 49.9038 58.424 50.0215 58.7734 50.257C59.1305 50.4925 59.385 50.7888 59.5369 51.1459L59.4571 51.3054L59.5255 50.0405H60.0041V54.4961H59.4685V53.1173L59.5825 53.3224C59.5293 53.4743 59.4382 53.6263 59.309 53.7782C59.1799 53.9225 59.0203 54.0593 58.8304 54.1884C58.6481 54.31 58.443 54.4087 58.2151 54.4847C57.9947 54.5531 57.7592 54.5873 57.5085 54.5873ZM57.6225 54.1314C57.9568 54.1314 58.2568 54.0631 58.5227 53.9263C58.7962 53.782 59.0165 53.5845 59.1837 53.3338C59.3508 53.0831 59.4457 52.7944 59.4685 52.4677V51.8296C59.4078 51.5485 59.2862 51.2978 59.1039 51.0775C58.9292 50.8572 58.7126 50.6825 58.4544 50.5533C58.1961 50.4242 57.915 50.3596 57.6111 50.3596C57.2768 50.3596 56.9692 50.4394 56.6881 50.5989C56.407 50.7508 56.1829 50.9673 56.0158 51.2484C55.8486 51.5295 55.7651 51.86 55.7651 52.2398C55.7651 52.5893 55.8486 52.9083 56.0158 53.197C56.1829 53.4781 56.407 53.706 56.6881 53.8807C56.9768 54.0479 57.2882 54.1314 57.6225 54.1314ZM68.9635 54.0631C68.7584 54.2302 68.5267 54.3593 68.2684 54.4505C68.0101 54.5417 67.7404 54.5873 67.4593 54.5873C67.0035 54.5873 66.5971 54.4885 66.24 54.291C65.883 54.0859 65.6019 53.8086 65.3968 53.4591C65.1917 53.1097 65.0891 52.7108 65.0891 52.2626C65.0891 51.8144 65.1955 51.4156 65.4082 51.0661C65.6209 50.7166 65.902 50.4432 66.2514 50.2456C66.6085 50.0405 66.9959 49.938 67.4137 49.938C67.7252 49.938 68.0139 49.9835 68.2798 50.0747C68.5457 50.1659 68.7774 50.295 68.9749 50.4622L68.69 50.8268C68.5305 50.6977 68.3444 50.5913 68.1316 50.5077C67.9189 50.4242 67.691 50.3824 67.4479 50.3824C67.1137 50.3824 66.806 50.4659 66.5249 50.6331C66.2514 50.8002 66.0311 51.0281 65.864 51.3168C65.7044 51.5979 65.6247 51.9132 65.6247 52.2626C65.6247 52.6045 65.7044 52.9197 65.864 53.2084C66.0311 53.4895 66.2552 53.7136 66.5363 53.8807C66.825 54.0479 67.1441 54.1314 67.4935 54.1314C67.7214 54.1314 67.9341 54.0973 68.1316 54.0289C68.3292 53.9529 68.5077 53.8542 68.6672 53.7326L68.9635 54.0631ZM70.0189 52.2398C70.0189 51.8068 70.1215 51.4118 70.3266 51.0547C70.5393 50.6977 70.8242 50.4166 71.1812 50.2115C71.5459 49.9987 71.9523 49.8924 72.4005 49.8924C72.8563 49.8924 73.2628 49.9987 73.6198 50.2115C73.9769 50.4166 74.258 50.6977 74.4631 51.0547C74.6682 51.4118 74.7708 51.8068 74.7708 52.2398C74.7708 52.6728 74.6682 53.0679 74.4631 53.4249C74.258 53.782 73.9731 54.0669 73.6084 54.2796C73.2514 54.4847 72.8487 54.5873 72.4005 54.5873C71.9447 54.5873 71.5383 54.4885 71.1812 54.291C70.8242 54.0859 70.5393 53.8086 70.3266 53.4591C70.1215 53.1021 70.0189 52.6956 70.0189 52.2398ZM70.5545 52.2512C70.5545 52.6007 70.6343 52.9197 70.7938 53.2084C70.9609 53.4895 71.1812 53.7136 71.4547 53.8807C71.7358 54.0479 72.0473 54.1314 72.3891 54.1314C72.731 54.1314 73.0387 54.0479 73.3122 53.8807C73.5932 53.7136 73.8136 53.4895 73.9731 53.2084C74.1402 52.9197 74.2238 52.6007 74.2238 52.2512C74.2238 51.9018 74.1402 51.5865 73.9731 51.3054C73.8136 51.0167 73.5932 50.7888 73.3122 50.6217C73.0387 50.447 72.731 50.3596 72.3891 50.3596C72.0397 50.3596 71.7244 50.4508 71.4433 50.6331C71.1698 50.8078 70.9533 51.0395 70.7938 51.3282C70.6343 51.6169 70.5545 51.9246 70.5545 52.2512ZM76.6573 54.4961V50.5419H75.8824V50.0519H76.6573V47.807C76.6573 47.0929 76.7789 46.5801 77.022 46.2687C77.2727 45.9496 77.6411 45.7901 78.1273 45.7901C78.2337 45.7901 78.3476 45.8053 78.4692 45.8357C78.5907 45.8584 78.7009 45.9002 78.7996 45.961L78.5717 46.3484C78.5185 46.3105 78.4578 46.2839 78.3894 46.2687C78.3286 46.2459 78.2564 46.2345 78.1729 46.2345C77.8462 46.2345 77.5993 46.3484 77.4322 46.5763C77.2727 46.8043 77.1929 47.2107 77.1929 47.7956V50.0519H78.6857V50.5419H77.1929V54.4961H76.6573ZM79.9392 54.4961V50.5419H79.1643V50.0519H79.9392V47.807C79.9392 47.0929 80.0607 46.5801 80.3038 46.2687C80.5545 45.9496 80.923 45.7901 81.4092 45.7901C81.5155 45.7901 81.6295 45.8053 81.751 45.8357C81.8726 45.8584 81.9827 45.9002 82.0815 45.961L81.8536 46.3484C81.8004 46.3105 81.7396 46.2839 81.6712 46.2687C81.6105 46.2459 81.5383 46.2345 81.4547 46.2345C81.1281 46.2345 80.8812 46.3484 80.714 46.5763C80.5545 46.8043 80.4747 47.2107 80.4747 47.7956V50.0519H81.9675V50.5419H80.4747V54.4961H79.9392ZM85.2756 54.5873C84.8122 54.5873 84.402 54.4847 84.0449 54.2796C83.6879 54.0745 83.4068 53.7972 83.2017 53.4477C83.0042 53.0907 82.9054 52.6918 82.9054 52.2512C82.9054 51.8182 83.0118 51.4232 83.2245 51.0661C83.4372 50.709 83.7221 50.4242 84.0791 50.2115C84.4438 49.9987 84.8464 49.8924 85.287 49.8924C85.8188 49.8924 86.2632 50.0481 86.6203 50.3596C86.9849 50.6711 87.247 51.0775 87.4066 51.5789L83.5094 53.0831L83.3498 52.6956L86.9166 51.3054L86.8026 51.4649C86.6735 51.1611 86.4759 50.899 86.2101 50.6787C85.9518 50.4584 85.6327 50.3482 85.2528 50.3482C84.911 50.3482 84.6033 50.4318 84.3298 50.5989C84.0563 50.766 83.836 50.9901 83.6689 51.2712C83.5094 51.5523 83.4296 51.8714 83.4296 52.2284C83.4296 52.5627 83.5056 52.8742 83.6575 53.1628C83.817 53.4515 84.0373 53.6832 84.3184 53.858C84.5995 54.0327 84.9224 54.12 85.287 54.12C85.5301 54.12 85.7618 54.0745 85.9821 53.9833C86.2101 53.8921 86.4114 53.7744 86.5861 53.63L86.8596 54.0175C86.6469 54.1846 86.4 54.3214 86.1189 54.4277C85.8454 54.5341 85.5643 54.5873 85.2756 54.5873ZM90.8286 54.5873C90.3652 54.5873 89.955 54.4847 89.5979 54.2796C89.2409 54.0745 88.9598 53.7972 88.7547 53.4477C88.5572 53.0907 88.4584 52.6918 88.4584 52.2512C88.4584 51.8182 88.5648 51.4232 88.7775 51.0661C88.9902 50.709 89.2751 50.4242 89.6321 50.2115C89.9968 49.9987 90.3994 49.8924 90.84 49.8924C91.3718 49.8924 91.8162 50.0481 92.1733 50.3596C92.5379 50.6711 92.8 51.0775 92.9596 51.5789L89.0624 53.0831L88.9028 52.6956L92.4696 51.3054L92.3556 51.4649C92.2265 51.1611 92.0289 50.899 91.763 50.6787C91.5048 50.4584 91.1857 50.3482 90.8058 50.3482C90.464 50.3482 90.1563 50.4318 89.8828 50.5989C89.6093 50.766 89.389 50.9901 89.2219 51.2712C89.0624 51.5523 88.9826 51.8714 88.9826 52.2284C88.9826 52.5627 89.0586 52.8742 89.2105 53.1628C89.37 53.4515 89.5903 53.6832 89.8714 53.858C90.1525 54.0327 90.4754 54.12 90.84 54.12C91.0831 54.12 91.3148 54.0745 91.5351 53.9833C91.763 53.8921 91.9644 53.7744 92.1391 53.63L92.4126 54.0175C92.1999 54.1846 91.953 54.3214 91.6719 54.4277C91.3984 54.5341 91.1173 54.5873 90.8286 54.5873ZM95.0598 53.5047C94.8926 53.8997 94.7293 54.291 94.5698 54.6784C94.4102 55.0735 94.2469 55.4723 94.0798 55.8749H93.624C93.7759 55.4723 93.924 55.0735 94.0684 54.6784C94.2127 54.291 94.3571 53.8997 94.5014 53.5047H95.0598ZM100.698 50.0405L100.755 51.408L100.687 51.237C100.786 50.9635 100.941 50.728 101.154 50.5305C101.367 50.333 101.602 50.1811 101.861 50.0747C102.127 49.9684 102.381 49.9152 102.624 49.9152L102.601 50.4394C102.259 50.4394 101.948 50.5153 101.667 50.6673C101.393 50.8192 101.173 51.0243 101.006 51.2826C100.846 51.5333 100.767 51.8182 100.767 52.1373V54.4961H100.231V50.0405H100.698ZM105.885 54.5873C105.422 54.5873 105.011 54.4847 104.654 54.2796C104.297 54.0745 104.016 53.7972 103.811 53.4477C103.614 53.0907 103.515 52.6918 103.515 52.2512C103.515 51.8182 103.621 51.4232 103.834 51.0661C104.047 50.709 104.332 50.4242 104.689 50.2115C105.053 49.9987 105.456 49.8924 105.897 49.8924C106.428 49.8924 106.873 50.0481 107.23 50.3596C107.594 50.6711 107.857 51.0775 108.016 51.5789L104.119 53.0831L103.959 52.6956L107.526 51.3054L107.412 51.4649C107.283 51.1611 107.085 50.899 106.82 50.6787C106.561 50.4584 106.242 50.3482 105.862 50.3482C105.52 50.3482 105.213 50.4318 104.939 50.5989C104.666 50.766 104.446 50.9901 104.278 51.2712C104.119 51.5523 104.039 51.8714 104.039 52.2284C104.039 52.5627 104.115 52.8742 104.267 53.1628C104.427 53.4515 104.647 53.6832 104.928 53.858C105.209 54.0327 105.532 54.12 105.897 54.12C106.14 54.12 106.371 54.0745 106.592 53.9833C106.82 53.8921 107.021 53.7744 107.196 53.63L107.469 54.0175C107.256 54.1846 107.009 54.3214 106.728 54.4277C106.455 54.5341 106.174 54.5873 105.885 54.5873ZM111.347 54.5873C110.922 54.5873 110.534 54.4923 110.185 54.3024C109.843 54.1049 109.569 53.8314 109.364 53.4819C109.167 53.1325 109.068 52.726 109.068 52.2626C109.068 51.7688 109.174 51.3472 109.387 50.9977C109.6 50.6407 109.888 50.371 110.253 50.1887C110.618 49.9987 111.032 49.9038 111.495 49.9038C111.89 49.9038 112.262 50.0215 112.612 50.257C112.969 50.4925 113.223 50.7888 113.375 51.1459L113.296 51.3054L113.364 50.0405H113.843V54.4961H113.307V53.1173L113.421 53.3224C113.368 53.4743 113.277 53.6263 113.147 53.7782C113.018 53.9225 112.859 54.0593 112.669 54.1884C112.486 54.31 112.281 54.4087 112.053 54.4847C111.833 54.5531 111.598 54.5873 111.347 54.5873ZM111.461 54.1314C111.795 54.1314 112.095 54.0631 112.361 53.9263C112.635 53.782 112.855 53.5845 113.022 53.3338C113.189 53.0831 113.284 52.7944 113.307 52.4677V51.8296C113.246 51.5485 113.125 51.2978 112.942 51.0775C112.768 50.8572 112.551 50.6825 112.293 50.5533C112.034 50.4242 111.753 50.3596 111.45 50.3596C111.115 50.3596 110.808 50.4394 110.527 50.5989C110.245 50.7508 110.021 50.9673 109.854 51.2484C109.687 51.5295 109.603 51.86 109.603 52.2398C109.603 52.5893 109.687 52.9083 109.854 53.197C110.021 53.4781 110.245 53.706 110.527 53.8807C110.815 54.0479 111.127 54.1314 111.461 54.1314ZM117.69 54.5873C117.272 54.5873 116.892 54.4885 116.55 54.291C116.208 54.0859 115.935 53.8048 115.73 53.4477C115.532 53.0907 115.433 52.688 115.433 52.2398C115.433 51.7612 115.536 51.3472 115.741 50.9977C115.946 50.6483 116.223 50.3786 116.573 50.1887C116.93 49.9987 117.321 49.9038 117.747 49.9038C118.172 49.9038 118.575 50.0139 118.954 50.2342C119.342 50.4546 119.623 50.7432 119.798 51.1003L119.707 51.351V45.8357H120.242V54.4961H119.695V53.1287L119.809 53.3794C119.619 53.7364 119.334 54.0289 118.954 54.2568C118.575 54.4771 118.153 54.5873 117.69 54.5873ZM117.826 54.12C118.168 54.12 118.476 54.0479 118.749 53.9035C119.023 53.7516 119.243 53.5503 119.41 53.2996C119.577 53.0413 119.672 52.7526 119.695 52.4335V51.8638C119.642 51.5751 119.524 51.3168 119.342 51.0889C119.16 50.861 118.939 50.6825 118.681 50.5533C118.423 50.4166 118.138 50.3482 117.826 50.3482C117.484 50.3482 117.173 50.428 116.892 50.5875C116.611 50.747 116.387 50.9673 116.22 51.2484C116.052 51.5295 115.969 51.8562 115.969 52.2284C115.969 52.5779 116.052 52.897 116.22 53.1856C116.387 53.4667 116.611 53.6946 116.892 53.8694C117.181 54.0365 117.492 54.12 117.826 54.12ZM127.605 54.5873C127.18 54.5873 126.792 54.4923 126.443 54.3024C126.101 54.1049 125.828 53.8314 125.623 53.4819C125.425 53.1325 125.326 52.726 125.326 52.2626C125.326 51.7688 125.433 51.3472 125.645 50.9977C125.858 50.6407 126.147 50.371 126.511 50.1887C126.876 49.9987 127.29 49.9038 127.753 49.9038C128.149 49.9038 128.521 50.0215 128.87 50.257C129.227 50.4925 129.482 50.7888 129.634 51.1459L129.554 51.3054L129.622 50.0405H130.101V54.4961H129.565V53.1173L129.679 53.3224C129.626 53.4743 129.535 53.6263 129.406 53.7782C129.277 53.9225 129.117 54.0593 128.927 54.1884C128.745 54.31 128.54 54.4087 128.312 54.4847C128.092 54.5531 127.856 54.5873 127.605 54.5873ZM127.719 54.1314C128.054 54.1314 128.354 54.0631 128.62 53.9263C128.893 53.782 129.113 53.5845 129.28 53.3338C129.448 53.0831 129.543 52.7944 129.565 52.4677V51.8296C129.505 51.5485 129.383 51.2978 129.201 51.0775C129.026 50.8572 128.809 50.6825 128.551 50.5533C128.293 50.4242 128.012 50.3596 127.708 50.3596C127.374 50.3596 127.066 50.4394 126.785 50.5989C126.504 50.7508 126.28 50.9673 126.113 51.2484C125.945 51.5295 125.862 51.86 125.862 52.2398C125.862 52.5893 125.945 52.9083 126.113 53.197C126.28 53.4781 126.504 53.706 126.785 53.8807C127.074 54.0479 127.385 54.1314 127.719 54.1314ZM138.114 54.5873C137.659 54.5873 137.241 54.4695 136.861 54.234C136.489 53.9985 136.215 53.7022 136.041 53.3452L136.154 53.0375V54.4961H135.619V45.8357H136.154V51.351L136.086 51.0547C136.261 50.7053 136.538 50.428 136.918 50.2228C137.298 50.0101 137.716 49.9038 138.171 49.9038C138.589 49.9038 138.969 50.0063 139.311 50.2115C139.653 50.409 139.923 50.6825 140.12 51.0319C140.325 51.3814 140.428 51.7802 140.428 52.2284C140.428 52.7298 140.321 53.159 140.109 53.5161C139.896 53.8656 139.615 54.1314 139.265 54.3138C138.916 54.4961 138.532 54.5873 138.114 54.5873ZM138.023 54.12C138.403 54.12 138.73 54.0403 139.003 53.8807C139.284 53.7136 139.501 53.4895 139.653 53.2084C139.805 52.9197 139.881 52.5931 139.881 52.2284C139.881 51.8866 139.801 51.5751 139.641 51.294C139.49 51.0053 139.273 50.7774 138.992 50.6103C138.718 50.4356 138.396 50.3482 138.023 50.3482C137.712 50.3482 137.423 50.4128 137.157 50.5419C136.899 50.6711 136.682 50.8458 136.508 51.0661C136.333 51.2864 136.215 51.5409 136.154 51.8296V52.5247C136.185 52.8058 136.284 53.0679 136.451 53.311C136.618 53.5541 136.838 53.7516 137.112 53.9035C137.385 54.0479 137.689 54.12 138.023 54.12ZM141.585 52.2398C141.585 51.8068 141.687 51.4118 141.892 51.0547C142.105 50.6977 142.39 50.4166 142.747 50.2115C143.112 49.9987 143.518 49.8924 143.966 49.8924C144.422 49.8924 144.828 49.9987 145.186 50.2115C145.543 50.4166 145.824 50.6977 146.029 51.0547C146.234 51.4118 146.336 51.8068 146.336 52.2398C146.336 52.6728 146.234 53.0679 146.029 53.4249C145.824 53.782 145.539 54.0669 145.174 54.2796C144.817 54.4847 144.414 54.5873 143.966 54.5873C143.51 54.5873 143.104 54.4885 142.747 54.291C142.39 54.0859 142.105 53.8086 141.892 53.4591C141.687 53.1021 141.585 52.6956 141.585 52.2398ZM142.12 52.2512C142.12 52.6007 142.2 52.9197 142.359 53.2084C142.527 53.4895 142.747 53.7136 143.02 53.8807C143.302 54.0479 143.613 54.1314 143.955 54.1314C144.297 54.1314 144.604 54.0479 144.878 53.8807C145.159 53.7136 145.379 53.4895 145.539 53.2084C145.706 52.9197 145.789 52.6007 145.789 52.2512C145.789 51.9018 145.706 51.5865 145.539 51.3054C145.379 51.0167 145.159 50.7888 144.878 50.6217C144.604 50.447 144.297 50.3596 143.955 50.3596C143.605 50.3596 143.29 50.4508 143.009 50.6331C142.736 50.8078 142.519 51.0395 142.359 51.3282C142.2 51.6169 142.12 51.9246 142.12 52.2512ZM147.494 52.2398C147.494 51.8068 147.596 51.4118 147.801 51.0547C148.014 50.6977 148.299 50.4166 148.656 50.2115C149.021 49.9987 149.427 49.8924 149.875 49.8924C150.331 49.8924 150.738 49.9987 151.095 50.2115C151.452 50.4166 151.733 50.6977 151.938 51.0547C152.143 51.4118 152.246 51.8068 152.246 52.2398C152.246 52.6728 152.143 53.0679 151.938 53.4249C151.733 53.782 151.448 54.0669 151.083 54.2796C150.726 54.4847 150.324 54.5873 149.875 54.5873C149.42 54.5873 149.013 54.4885 148.656 54.291C148.299 54.0859 148.014 53.8086 147.801 53.4591C147.596 53.1021 147.494 52.6956 147.494 52.2398ZM148.029 52.2512C148.029 52.6007 148.109 52.9197 148.269 53.2084C148.436 53.4895 148.656 53.7136 148.93 53.8807C149.211 54.0479 149.522 54.1314 149.864 54.1314C150.206 54.1314 150.513 54.0479 150.787 53.8807C151.068 53.7136 151.288 53.4895 151.448 53.2084C151.615 52.9197 151.699 52.6007 151.699 52.2512C151.699 51.9018 151.615 51.5865 151.448 51.3054C151.288 51.0167 151.068 50.7888 150.787 50.6217C150.513 50.447 150.206 50.3596 149.864 50.3596C149.514 50.3596 149.199 50.4508 148.918 50.6331C148.645 50.8078 148.428 51.0395 148.269 51.3282C148.109 51.6169 148.029 51.9246 148.029 52.2512ZM153.836 54.4961V45.8357H154.371V54.4961H153.836ZM155.397 51.6017L157.471 54.4961H156.844L155.021 51.898L155.397 51.6017ZM154.189 52.878L154.144 52.3424L156.867 49.9494L157.197 50.2342L154.189 52.878Z" fill="white"/>
</svg>
