<svg width="50" height="82" viewBox="0 0 50 82" fill="none" xmlns="http://www.w3.org/2000/svg">
<path fill-rule="evenodd" clip-rule="evenodd" d="M20.4075 6.69202L24.3634 10.6479L16.9007 18.1105L24.3634 25.5731L20.4075 29.529L8.98904 18.1105L20.4075 6.69202Z" fill="#0E3131"/>
<path fill-rule="evenodd" clip-rule="evenodd" d="M30.6087 0L26.6528 3.95584L34.1155 11.4185L26.6528 18.8811L30.6087 22.837L42.0272 11.4185L30.6087 0Z" fill="#0E3131"/>
<path fill-rule="evenodd" clip-rule="evenodd" d="M27.7512 42.4504L43.7063 36.6414V59.5121L50 57.2744V30.1492C50 28.9357 48.7939 28.0913 47.6536 28.5064L25.5981 36.5364C25.2118 36.6771 24.7882 36.6771 24.4019 36.5364L2.34635 28.5064C1.20606 28.0913 0 28.9357 0 30.1492V70.8227C0 71.5576 0.459601 72.214 1.15016 72.4654L24.4019 80.9309C24.7882 81.0716 25.2118 81.0716 25.5981 80.9309L48.8498 72.4654C49.5404 72.214 50 71.5576 50 70.8227V65.431L40.3721 68.8541L25 74.4508L6.29371 67.6402V36.6414L22.2488 42.4504C24.0259 43.0974 25.9741 43.0974 27.7512 42.4504Z" fill="#0E3131"/>
</svg>
